<svg width="152" height="113" viewBox="0 0 152 113" fill="none" xmlns="http://www.w3.org/2000/svg">
<path d="M2.17901 27.813C1.82788 25.5636 3.36425 23.4546 5.61301 23.099L120.17 4.80805C121.255 4.63325 122.365 4.89741 123.255 5.54223C124.145 6.18704 124.742 7.15952 124.914 8.24505L136.121 79.569C136.472 81.8185 134.936 83.9275 132.687 84.283L18.128 102.575C17.0429 102.75 15.9329 102.486 15.0429 101.841C14.1528 101.196 13.556 100.224 13.384 99.138L2.17901 27.813Z" fill="white"/>
<path fill-rule="evenodd" clip-rule="evenodd" d="M119.4 3.96698C120.827 3.96982 122.194 4.54048 123.2 5.55298C121.984 4.31942 120.245 3.7543 118.536 4.03798C118.822 3.99092 119.111 3.96718 119.4 3.96698ZM128.57 18.452C128.035 19.0768 127.294 19.4891 126.481 19.614H126.48C126.308 19.6397 126.134 19.6524 125.96 19.652C125.317 19.6517 124.688 19.4701 124.144 19.128C124.797 18.366 125.751 17.9276 126.755 17.928C127.397 17.9284 128.026 18.1101 128.57 18.452ZM127.406 25.735L127.406 25.7351L125.707 25.996L127.406 25.735ZM127.406 25.7351L127.407 25.735L127.666 27.447L127.406 25.7351ZM13.871 97.479C14.0299 98.534 14.472 99.5262 15.15 100.35C14.4728 99.5251 14.0324 98.5317 13.876 97.476L13.871 97.479Z" fill="#585CE5"/>
<path d="M7.50001 31.053C7.32823 29.9681 7.59716 28.8596 8.24698 27.9741C8.8968 27.0886 9.87359 26.4995 10.96 26.338L115.864 10.124C118.113 9.7659 120.23 11.288 120.607 13.534L130.798 76.334C130.97 77.4188 130.701 78.5273 130.051 79.4128C129.401 80.2984 128.424 80.8874 127.338 81.049L22.434 97.258C20.185 97.616 18.0679 96.0939 17.691 93.848L7.50001 31.053Z" fill="#F0F1F5"/>
<path d="M147.251 110.074H33.6011C32.0834 110.072 30.8533 108.843 30.8511 107.325V77.6681C30.9601 77.6731 31.0751 77.6771 31.1961 77.6771C35.011 77.6314 38.0796 74.5258 38.0796 70.7106C38.0796 66.8954 35.011 63.7898 31.1961 63.7441C31.0821 63.7441 30.9661 63.7441 30.8511 63.7531V34.1011C30.8527 32.583 32.083 31.3527 33.6011 31.3511H147.251C148.769 31.3533 149.998 32.5834 150 34.1011V63.7511C149.892 63.7461 149.776 63.7421 149.656 63.7421C145.841 63.7878 142.773 66.8934 142.773 70.7086C142.773 74.5238 145.841 77.6294 149.656 77.6751C149.77 77.6751 149.886 77.6751 150 77.6661V107.325C149.998 108.842 148.768 110.072 147.251 110.074Z" fill="white" stroke="#585CE5" stroke-width="4"/>
<g clip-path="url(#clip0_0_5529)">
<path d="M74.598 63.6084C74.598 61.471 75.2919 59.7404 76.6796 58.4165C78.0673 57.0767 79.8856 56.4067 82.1346 56.4067C84.4156 56.4067 86.2499 57.0687 87.6376 58.3926C89.0253 59.7005 89.7191 61.479 89.7191 63.728V65.4507C89.7191 67.604 89.0253 69.3346 87.6376 70.6426C86.2499 71.9505 84.4315 72.6045 82.1825 72.6045C79.9175 72.6045 78.0832 71.9505 76.6796 70.6426C75.2919 69.3187 74.598 67.5402 74.598 65.3071V63.6084ZM79.1918 65.4507C79.1918 66.4077 79.4629 67.1813 80.0052 67.7715C80.5635 68.3457 81.2893 68.6328 82.1825 68.6328C83.0757 68.6328 83.7855 68.3377 84.3119 67.7476C84.8383 67.1574 85.1014 66.3678 85.1014 65.3789V63.6084C85.1014 62.6514 84.8383 61.8778 84.3119 61.2876C83.7855 60.6974 83.0598 60.4023 82.1346 60.4023C81.2574 60.4023 80.5476 60.6974 80.0052 61.2876C79.4629 61.8618 79.1918 62.6673 79.1918 63.7041V65.4507ZM91.2504 83.2036C91.2504 81.0503 91.9522 79.3197 93.3558 78.0117C94.7595 76.6878 96.5778 76.0259 98.8109 76.0259C101.076 76.0259 102.902 76.6799 104.29 77.9878C105.694 79.2798 106.395 81.0662 106.395 83.3472V85.0698C106.395 87.2072 105.71 88.9378 104.338 90.2617C102.966 91.5697 101.14 92.2236 98.8588 92.2236C96.5619 92.2236 94.7196 91.5617 93.3319 90.2378C91.9442 88.9139 91.2504 87.1593 91.2504 84.9741V83.2036ZM95.8441 85.0698C95.8441 85.9471 96.1312 86.6968 96.7054 87.3188C97.2797 87.9409 97.9974 88.252 98.8588 88.252C100.805 88.252 101.778 87.1753 101.778 85.022V83.2036C101.778 82.2466 101.507 81.481 100.964 80.9067C100.422 80.3166 99.7041 80.0215 98.8109 80.0215C97.9177 80.0215 97.1999 80.3166 96.6576 80.9067C96.1153 81.481 95.8441 82.2705 95.8441 83.2754V85.0698ZM83.5463 89.1372L80.1727 87.3188L97.184 60.0913L100.557 61.9097L83.5463 89.1372Z" fill="#1C2340"/>
</g>
<defs>
<clipPath id="clip0_0_5529">
<rect width="37" height="57" fill="white" transform="translate(72.3251 46.7451)"/>
</clipPath>
</defs>
</svg>
