<svg width="35" height="38" viewBox="0 0 35 38" fill="none" xmlns="http://www.w3.org/2000/svg">
<path fill-rule="evenodd" clip-rule="evenodd" d="M33.6108 3.66905C33.8112 3.6689 33.9962 3.77662 34.095 3.951L34.096 3.95C34.5767 4.77401 34.8297 5.71102 34.829 6.665V32.565C34.8257 35.5378 32.4168 37.9471 29.444 37.951H5.385C2.41216 37.9471 0.00330556 35.5378 0 32.565V6.665C0.00330556 3.69215 2.41216 1.28286 5.385 1.279H8.018L9.135 0.163C9.23921 0.0587113 9.38057 8.02815e-05 9.528 0H25.302C25.4519 6.36647e-05 25.5954 0.0606422 25.7 0.168L26.812 1.282H29.439C30.4872 1.28056 31.5129 1.58652 32.389 2.162C32.6339 2.33489 32.6976 2.67081 32.5331 2.92139C32.3686 3.17198 32.035 3.24701 31.779 3.091C31.0842 2.63384 30.2707 2.39047 29.439 2.391H27.859C28.2858 3.01049 28.4048 3.7915 28.182 4.51L25.082 14.549C24.8457 15.3207 24.1931 15.8924 23.397 16.025C23.2771 16.0455 23.1557 16.0559 23.034 16.056C22.3565 16.0561 21.7196 15.7334 21.319 15.187L20.928 14.657V36.839H29.442C31.8013 36.8362 33.7132 34.9243 33.716 32.565V6.665C33.7166 5.90852 33.5161 5.16548 33.135 4.512C33.0316 4.34033 33.0285 4.12629 33.127 3.95175C33.2256 3.77722 33.4104 3.66921 33.6108 3.66905ZM24.023 14.221L27.123 4.182L27.127 4.185C27.2757 3.7068 27.1467 3.18556 26.792 2.832L25.405 1.445L19.499 10.845L22.217 14.527C22.4468 14.8386 22.8324 14.9943 23.2141 14.9296C23.5959 14.865 23.9087 14.5909 24.023 14.221ZM8.041 2.828L9.428 1.441L15.334 10.841L12.616 14.523C12.3862 14.8346 12.0006 14.9903 11.6189 14.9256C11.2371 14.861 10.9243 14.5869 10.81 14.217L7.71 4.178C7.56127 3.6998 7.69033 3.17856 8.045 2.825L8.041 2.828ZM12.478 4.208L16.313 10.313H18.52L22.355 4.208H12.478ZM24.296 1.113L23.05 3.1H11.78L10.533 1.112L24.296 1.113ZM16.562 35.626V36.837H19.811V13.151L18.537 11.425H16.556V33.4C16.556 33.7071 16.3071 33.956 16 33.956C15.6929 33.956 15.444 33.7071 15.444 33.4V12.559L13.505 15.187C13.1044 15.7334 12.4675 16.0561 11.79 16.056C11.6687 16.0558 11.5476 16.0455 11.428 16.025C10.6319 15.8924 9.97931 15.3207 9.743 14.549L6.643 4.51C6.42019 3.79149 6.53924 3.01049 6.966 2.391H5.385C3.02568 2.39376 1.11376 4.30568 1.111 6.665V32.563C1.11376 34.9223 3.02568 36.8342 5.385 36.837H15.45V35.626C15.45 35.3189 15.6989 35.07 16.006 35.07C16.3131 35.07 16.562 35.3189 16.562 35.626Z" fill="white"/>
<path fill-rule="evenodd" clip-rule="evenodd" d="M23.441 19.29H31.112C31.9135 19.2911 32.5629 19.9406 32.564 20.742V22.202C32.5629 23.0035 31.9135 23.6529 31.112 23.654H23.441C22.6396 23.6529 21.9901 23.0035 21.989 22.202V20.742C21.9901 19.9406 22.6396 19.2911 23.441 19.29ZM31.112 22.544C31.3003 22.544 31.453 22.3914 31.453 22.203V20.743C31.453 20.5547 31.3003 20.402 31.112 20.402H23.44C23.2517 20.402 23.099 20.5547 23.099 20.743V22.203C23.099 22.3914 23.2517 22.544 23.44 22.544H31.112Z" fill="white"/>
<path fill-rule="evenodd" clip-rule="evenodd" d="M16.796 15.06C16.796 14.2901 17.4201 13.666 18.19 13.666C18.9585 13.6693 19.5807 14.2915 19.584 15.06C19.584 15.8299 18.9599 16.454 18.19 16.454C17.4201 16.454 16.796 15.8299 16.796 15.06ZM17.908 15.06C17.908 15.2158 18.0343 15.342 18.19 15.342C18.3458 15.342 18.472 15.2158 18.472 15.06C18.472 14.9043 18.3458 14.778 18.19 14.778C18.0343 14.778 17.908 14.9043 17.908 15.06Z" fill="white"/>
<path fill-rule="evenodd" clip-rule="evenodd" d="M16.796 22.6999C16.796 21.93 17.4201 21.3059 18.19 21.3059C18.9585 21.3092 19.5807 21.9314 19.584 22.6999C19.584 23.4698 18.9599 24.0939 18.19 24.0939C17.4201 24.0939 16.796 23.4698 16.796 22.6999ZM17.908 22.6999C17.908 22.8557 18.0343 22.9819 18.19 22.9819C18.2648 22.9819 18.3365 22.9522 18.3894 22.8993C18.4423 22.8464 18.472 22.7747 18.472 22.6999C18.472 22.5442 18.3458 22.4179 18.19 22.4179C18.0343 22.4179 17.908 22.5442 17.908 22.6999Z" fill="white"/>
<path fill-rule="evenodd" clip-rule="evenodd" d="M16.796 30.341C16.796 29.5711 17.4201 28.947 18.19 28.947C18.9585 28.9503 19.5807 29.5725 19.584 30.341C19.584 31.1109 18.9599 31.735 18.19 31.735C17.4201 31.735 16.796 31.1109 16.796 30.341ZM17.908 30.341C17.908 30.4968 18.0343 30.623 18.19 30.623C18.3455 30.6225 18.4715 30.4965 18.472 30.341C18.472 30.1853 18.3458 30.059 18.19 30.059C18.0343 30.059 17.908 30.1853 17.908 30.341Z" fill="white"/>
</svg>
