<svg width="44" height="36" viewBox="0 0 44 36" fill="none" xmlns="http://www.w3.org/2000/svg">
<path fill-rule="evenodd" clip-rule="evenodd" d="M42.526 1.92202H34.438L34.538 1.27402C34.5687 1.08268 34.5188 0.88716 34.4 0.734023C34.2874 0.587053 34.1132 0.500326 33.928 0.499023H31.282C30.9276 0.512045 30.6506 0.809579 30.663 1.16402V1.92102H13.376V1.16402C13.3884 0.809579 13.1114 0.512045 12.757 0.499023H10.11C9.92484 0.500326 9.75065 0.587053 9.63801 0.734023C9.51925 0.88716 9.46928 1.08268 9.50001 1.27402L9.60001 1.92202H1.50901C1.15878 1.94555 0.886719 2.2365 0.886719 2.58752C0.886719 2.93854 1.15878 3.2295 1.50901 3.25302H6.84501V21.791C6.82025 22.5244 7.3928 23.1398 8.12601 23.168H10.661L12.137 31.103V33.171C12.1122 33.9044 12.6848 34.5198 13.418 34.548H15.445V34.594C15.4263 34.827 15.54 35.0509 15.7392 35.1731C15.9385 35.2954 16.1895 35.2954 16.3888 35.1731C16.588 35.0509 16.7018 34.827 16.683 34.594V34.548H27.355V34.594C27.3363 34.827 27.45 35.0509 27.6492 35.1731C27.8485 35.2954 28.0995 35.2954 28.2988 35.1731C28.498 35.0509 28.6118 34.827 28.593 34.594V34.548H30.62C31.3532 34.5198 31.9258 33.9044 31.901 33.171V31.102L33.377 23.167H35.913C36.6442 23.1367 37.2142 22.5225 37.19 21.791V3.25302H42.526C42.8762 3.2295 43.1483 2.93854 43.1483 2.58752C43.1483 2.2365 42.8762 1.94555 42.526 1.92202ZM31.901 1.83002H33.201L32.746 4.76602H31.905L31.901 1.83002ZM12.138 4.76602V1.83002H10.842L11.297 4.76602H12.138ZM12.338 25.41L11.508 20.949C11.4836 20.7818 11.3923 20.6317 11.255 20.5333C11.1177 20.4348 10.9462 20.3965 10.78 20.427C10.4341 20.5153 10.2196 20.8609 10.294 21.21L10.411 21.836H8.12501C8.11316 21.8358 8.10192 21.8307 8.09382 21.8221C8.08573 21.8134 8.08147 21.8019 8.08201 21.79V9.30802L9.76701 18.365C9.81364 18.6661 10.0685 18.8911 10.373 18.9C10.414 18.9 10.4549 18.8956 10.495 18.887C10.8409 18.7988 11.0554 18.4532 10.981 18.104L8.21901 3.25302H9.80601L10.161 5.54202C10.1994 5.85282 10.459 6.08903 10.772 6.09802H12.757C13.1114 6.085 13.3884 5.78747 13.376 5.43302V3.25302H14.359L15.179 5.01602C15.2759 5.23641 15.4923 5.38015 15.733 5.38402C15.8294 5.3839 15.9242 5.35985 16.009 5.31402C16.3201 5.13413 16.4407 4.74538 16.286 4.42102L15.743 3.25302H28.295L22.019 16.747L17.425 6.86902C17.3601 6.71444 17.2334 6.59408 17.0758 6.53708C16.9181 6.48009 16.7438 6.49167 16.595 6.56902C16.2839 6.74891 16.1633 7.13767 16.318 7.46202L21.328 18.233L20.772 19.433C20.3326 20.3855 20.0969 21.4192 20.08 22.468V22.505V22.525V22.594V30.375H17.969C17.7517 27.6306 15.5076 25.4872 12.756 25.396C12.618 25.393 12.479 25.399 12.341 25.411L12.338 25.41ZM13.418 33.215H15.438L15.445 33.216V31.702H13.375V33.169C13.3745 33.1809 13.3787 33.1924 13.3868 33.2011C13.3949 33.2097 13.4062 33.2148 13.418 33.215ZM13.256 30.37L12.59 26.728H12.76C14.8033 26.7925 16.4904 28.3451 16.724 30.376L13.256 30.37ZM16.684 33.215H27.347L27.355 31.702H16.684V33.215ZM30.655 33.169C30.6556 33.1809 30.6513 33.1924 30.6432 33.2011C30.6351 33.2097 30.6239 33.2148 30.612 33.215H28.59V31.702H30.66L30.655 33.169ZM27.317 30.369H30.766L31.451 26.721H31.281C29.2378 26.7855 27.5506 28.3381 27.317 30.369ZM31.689 25.409C31.551 25.397 31.412 25.391 31.274 25.391C28.5225 25.4822 26.2784 27.6256 26.061 30.37H21.315V23.17H21.358C22.1398 23.1999 22.7505 23.8561 22.724 24.638V28.194C22.7053 28.427 22.819 28.6509 23.0182 28.7731C23.2175 28.8954 23.4685 28.8954 23.6678 28.7731C23.867 28.6509 23.9808 28.427 23.962 28.194V24.636C24.0127 23.1465 22.8512 21.8957 21.362 21.836C21.4387 21.2093 21.6124 20.5983 21.877 20.025L29.677 3.25302H30.66V5.43202C30.6482 5.78626 30.9248 6.08346 31.279 6.09702H33.264C33.577 6.08803 33.8366 5.85182 33.875 5.54102L34.23 3.25202H35.82L31.689 25.409ZM35.9362 21.8211C35.9443 21.8124 35.9486 21.8009 35.948 21.789L35.956 9.30602L33.625 21.835H35.905C35.9169 21.8348 35.9281 21.8297 35.9362 21.8211Z" fill="white"/>
</svg>
