<svg width="36" height="34" viewBox="0 0 36 34" fill="none" xmlns="http://www.w3.org/2000/svg">
<path d="M20.042 3.31823C21.7134 3.32107 23.1963 2.24648 23.714 0.657227C21.3013 1.24554 18.7826 1.24554 16.37 0.657227C16.8877 2.24648 18.3705 3.32107 20.042 3.31823Z" fill="white"/>
<path fill-rule="evenodd" clip-rule="evenodd" d="M31.925 4.38312C29.5595 2.1754 26.4354 0.962289 23.2 0.99512C17.778 -0.33388 17.647 -0.32888 12.206 0.99512C8.9712 0.962804 5.84792 2.17588 3.48298 4.38312C1.1361 6.7764 -0.123382 10.0294 -2.06893e-05 13.3791C0.000770948 13.5687 0.0796255 13.7495 0.217979 13.8791L0.245979 13.9051L6.50698 19.1811V21.6441C6.49734 21.8974 6.627 22.1358 6.84491 22.2653C7.06283 22.3948 7.33413 22.3948 7.55205 22.2653C7.76996 22.1358 7.89961 21.8974 7.88998 21.6441V11.2031C7.87584 10.8314 7.57043 10.5374 7.19848 10.5374C6.82653 10.5374 6.52112 10.8314 6.50698 11.2031V13.0031L2.05198 9.19612C3.10414 6.09205 5.64093 3.7212 8.80898 2.88112C9.14141 4.58851 9.97972 6.15644 11.215 7.38112C12.804 9.03212 15.427 10.6981 17.705 10.6981C19.983 10.6981 22.605 9.03212 24.195 7.38112C25.4315 6.15711 26.2706 4.58898 26.603 2.88112C29.771 3.7212 32.3078 6.09205 33.36 9.19612L28.905 13.0071V11.2071C28.8908 10.8354 28.5854 10.5414 28.2135 10.5414C27.8415 10.5414 27.5361 10.8354 27.522 11.2071V30.6571C27.5198 31.7177 26.6606 32.5769 25.6 32.5791H9.81198C8.74984 32.5769 7.88998 31.7153 7.88998 30.6531V27.8641C7.87584 27.4924 7.57043 27.1984 7.19848 27.1984C6.82653 27.1984 6.52112 27.4924 6.50698 27.8641V30.6531C6.50753 32.479 7.9861 33.9598 9.81198 33.9631H25.6C27.4259 33.9598 28.9044 32.479 28.905 30.6531V19.1841L35.166 13.9081C35.3202 13.7769 35.4091 13.5846 35.409 13.3821C35.5323 10.0305 34.2712 6.77576 31.922 4.38212L31.925 4.38312ZM6.50698 14.8281V17.3751L1.38698 13.0601C1.40221 12.2575 1.4899 11.4579 1.64898 10.6711L6.50698 14.8281ZM20.482 4.98312C21.394 4.29108 22.0557 3.3208 22.367 2.21912C17.884 1.11912 17.544 1.11912 13.046 2.21912C13.3568 3.32049 14.0178 4.29072 14.929 4.98312C15.7083 5.70057 16.6677 6.19308 17.705 6.40812C18.7425 6.1931 19.7023 5.70061 20.482 4.98312ZM23.198 6.41912C21.816 7.85612 19.486 9.31112 17.705 9.31112C15.924 9.31112 13.6 7.85512 12.212 6.41912C11.1568 5.37383 10.4416 4.03444 10.16 2.57612C10.6611 2.49119 11.1666 2.43377 11.674 2.40412C12.0132 3.85785 12.8524 5.1462 14.045 6.04412C15.0649 6.97578 16.3389 7.58287 17.705 7.78812C19.0709 7.58264 20.3449 6.97557 21.365 6.04412C22.5581 5.14611 23.3977 3.85736 23.737 2.40312C24.2444 2.43278 24.7498 2.4902 25.251 2.57512C24.9704 4.03389 24.2555 5.37381 23.2 6.41912H23.198ZM28.905 14.8281V17.3761L34.025 13.0611C34.0098 12.2585 33.9221 11.4589 33.763 10.6721L28.905 14.8281Z" fill="white"/>
<path fill-rule="evenodd" clip-rule="evenodd" d="M25.854 14.7012V17.3622C25.854 19.1118 24.4356 20.5302 22.686 20.5302C20.9364 20.5302 19.518 19.1118 19.518 17.3622V14.7012C19.5191 13.8787 20.1856 13.2123 21.008 13.2112H24.364C25.1865 13.2123 25.8529 13.8787 25.854 14.7012ZM20.902 14.7012V17.3632L20.901 17.3622C20.901 18.3477 21.7 19.1467 22.6855 19.1467C23.6711 19.1467 24.47 18.3477 24.47 17.3622V14.7012C24.4695 14.6427 24.4225 14.5953 24.364 14.5942H21.008C20.9495 14.5953 20.9025 14.6427 20.902 14.7012Z" fill="white"/>
<path d="M7.19896 25.4482C7.58101 25.4482 7.89078 25.1386 7.89096 24.7565C7.89114 24.3745 7.58168 24.0646 7.19963 24.0642C6.81758 24.0638 6.50751 24.3732 6.50696 24.7552C6.50643 24.939 6.57913 25.1154 6.70899 25.2455C6.83886 25.3755 7.01518 25.4485 7.19896 25.4482Z" fill="white"/>
</svg>
