<svg width="18" height="15" viewBox="0 0 18 15" fill="none" xmlns="http://www.w3.org/2000/svg">
<path fill-rule="evenodd" clip-rule="evenodd" d="M16.045 0.439962H1.78302C1.31055 0.438611 0.857173 0.626319 0.523932 0.961251C0.19069 1.29618 0.00527912 1.7505 0.00902023 2.22296L2.02284e-05 12.919C-0.00158081 13.3923 0.185756 13.8468 0.520481 14.1815C0.855206 14.5162 1.30965 14.7036 1.78302 14.702H16.045C16.5184 14.7036 16.9728 14.5162 17.3076 14.1815C17.6423 13.8468 17.8296 13.3923 17.828 12.919V2.22296C17.8296 1.74959 17.6423 1.29515 17.3076 0.960423C16.9728 0.625698 16.5184 0.438361 16.045 0.439962ZM16.045 12.919H1.78302V7.57096H16.045V12.919ZM1.78302 4.00496H16.045V2.22296H1.78302V4.00496Z" fill="#1C2340"/>
</svg>
