<svg width="18" height="16" viewBox="0 0 18 16" fill="none" xmlns="http://www.w3.org/2000/svg">
<path fill-rule="evenodd" clip-rule="evenodd" d="M9.859 15.2714C8.73376 15.585 7.56762 15.727 6.4 15.6924C3.665 15.6924 0 15.2354 0 11.2854C0.0379192 8.95143 1.23548 6.78953 3.194 5.51943C3.05322 5.35083 2.9745 5.13905 2.971 4.91943C2.971 4.37874 3.40931 3.94043 3.95 3.94043H8.847C9.10717 3.94016 9.35674 4.04347 9.54061 4.22753C9.72448 4.41159 9.82753 4.66126 9.827 4.92143C9.8233 5.14119 9.74422 5.35301 9.603 5.52143C9.9323 5.73348 10.2431 5.973 10.532 6.23743C10.1241 6.53193 9.86761 6.99197 9.83152 7.49377C9.79542 7.99558 9.98345 8.48759 10.345 8.83743C10.0126 9.15785 9.82476 9.59971 9.82476 10.0614C9.82476 10.5231 10.0126 10.965 10.345 11.2854C10.0126 11.6059 9.82476 12.0477 9.82476 12.5094C9.82476 12.9712 10.0126 13.413 10.345 13.7334C9.93107 14.1295 9.74782 14.7094 9.859 15.2714ZM4.94507 9.7208C5.06495 10.4265 5.67721 10.9422 6.393 10.9404C6.66362 10.9404 6.883 11.1598 6.883 11.4304C6.883 11.7011 6.66362 11.9204 6.393 11.9204C6.12238 11.9204 5.903 11.7011 5.903 11.4304C5.91115 11.2503 5.81967 11.0802 5.66486 10.9877C5.51006 10.8952 5.31694 10.8952 5.16214 10.9877C5.00733 11.0802 4.91585 11.2503 4.924 11.4304C4.92606 12.0529 5.32099 12.6062 5.909 12.8104V13.2454C5.90086 13.4256 5.99233 13.5957 6.14714 13.6882C6.30194 13.7807 6.49506 13.7807 6.64986 13.6882C6.80467 13.5957 6.89615 13.4256 6.888 13.2454V12.8074C7.55901 12.5669 7.95974 11.8785 7.83759 11.1762C7.71544 10.4739 7.10583 9.9613 6.393 9.96143C6.12238 9.96143 5.903 9.74205 5.903 9.47143C5.903 9.20081 6.12238 8.98143 6.393 8.98143C6.66362 8.98143 6.883 9.20081 6.883 9.47143C6.89483 9.73318 7.11049 9.9393 7.3725 9.9393C7.63451 9.9393 7.85017 9.73318 7.862 9.47143C7.86003 8.85302 7.47045 8.30225 6.888 8.09443V7.36943C6.89615 7.18927 6.80467 7.0192 6.64986 6.92669C6.49506 6.83417 6.30194 6.83417 6.14714 6.92669C5.99233 7.0192 5.90086 7.18927 5.909 7.36943V8.09143C5.23279 8.32614 4.82518 9.01512 4.94507 9.7208Z" fill="#1C2340"/>
<path d="M16.6401 14.2232H12.2001C11.9312 14.2132 11.6784 14.351 11.541 14.5824C11.4036 14.8137 11.4036 15.1016 11.541 15.333C11.6784 15.5643 11.9312 15.7021 12.2001 15.6922H16.6401C17.0352 15.6776 17.348 15.353 17.348 14.9577C17.348 14.5623 17.0352 14.2377 16.6401 14.2232Z" fill="#1C2340"/>
<path d="M16.6401 11.7754H12.2001C11.9312 11.7655 11.6784 11.9033 11.541 12.1346C11.4036 12.3659 11.4036 12.6539 11.541 12.8852C11.6784 13.1165 11.9312 13.2543 12.2001 13.2444H16.6401C17.0352 13.2298 17.348 12.9053 17.348 12.5099C17.348 12.1145 17.0352 11.79 16.6401 11.7754Z" fill="#1C2340"/>
<path d="M16.6401 9.65529H12.2001C11.9312 9.64536 11.6784 9.78315 11.541 10.0145C11.4036 10.2458 11.4036 10.5337 11.541 10.7651C11.6784 10.9964 11.9312 11.1342 12.2001 11.1243H16.6401C17.0352 11.1097 17.348 10.7852 17.348 10.3898C17.348 9.99441 17.0352 9.66987 16.6401 9.65529Z" fill="#1C2340"/>
<path d="M16.6401 7.37061H12.2001C11.7944 7.37061 11.4656 7.69945 11.4656 8.10511C11.4656 8.51076 11.7944 8.83961 12.2001 8.83961H16.6401C17.0457 8.83961 17.3746 8.51076 17.3746 8.10511C17.3746 7.69945 17.0457 7.37061 16.6401 7.37061V7.37061Z" fill="#1C2340"/>
<path d="M7.97599 0.97938C7.7697 0.392895 7.2157 0.000488281 6.59399 0.000488281C5.97228 0.000488281 5.41828 0.392895 5.21199 0.97938H3.65899C3.50145 0.979203 3.35348 1.05493 3.26148 1.18282C3.16948 1.3107 3.14473 1.47507 3.19499 1.62438L3.95899 3.98338H9.23499L9.99899 1.62438C10.0492 1.47507 10.0245 1.3107 9.9325 1.18282C9.8405 1.05493 9.69253 0.979203 9.53499 0.97938H7.97599Z" fill="#1C2340"/>
</svg>
