<svg width="34" height="35" viewBox="0 0 34 35" fill="none" xmlns="http://www.w3.org/2000/svg">
<path d="M26.0468 4.018V3.4C26.9062 3.15321 27.4366 2.29272 27.2707 1.41403C27.1049 0.535346 26.2974 -0.072647 25.4071 0.0108267C24.5168 0.0943004 23.8364 0.841797 23.8368 1.736C23.8368 2.00054 24.0512 2.215 24.3158 2.215C24.5803 2.215 24.7948 2.00054 24.7948 1.736C24.7948 1.30853 25.1413 0.961998 25.5688 0.961998C25.9962 0.961998 26.3428 1.30853 26.3428 1.736C26.3428 2.16347 25.9962 2.51 25.5688 2.51C25.3042 2.51 25.0898 2.72445 25.0898 2.989V4.018L23.8218 4.656C23.9275 4.80503 23.9841 4.98329 23.9838 5.166C23.9841 5.31773 24.0063 5.46862 24.0498 5.614L25.5688 4.85L27.0868 5.614C27.1302 5.46862 27.1524 5.31773 27.1528 5.166C27.1525 4.9833 27.2091 4.80506 27.3148 4.656L26.0468 4.018Z" fill="url(#paint0_linear_0_2217)"/>
<circle cx="5.27786" cy="3.86697" r="2.918" fill="url(#paint1_linear_0_2217)"/>
<path d="M33.02 5.16504H28.037C28.037 6.52808 26.9321 7.63304 25.569 7.63304C24.206 7.63304 23.101 6.52808 23.101 5.16504H18.118C18.0035 5.16504 17.8936 5.21056 17.8126 5.29157C17.7315 5.37259 17.686 5.48247 17.686 5.59704V6.67804L20.255 8.83004C20.8132 9.29819 20.8871 10.1299 20.42 10.689L20.338 10.789V18.019C20.338 18.2576 20.5314 18.451 20.77 18.451H30.37C30.6086 18.451 30.802 18.2576 30.802 18.019V9.29504H33.022C33.1366 9.29504 33.2465 9.24953 33.3275 9.16851C33.4085 9.0875 33.454 8.97762 33.454 8.86304V5.59704C33.454 5.48212 33.4082 5.37194 33.3268 5.29086C33.2454 5.20979 33.135 5.16451 33.02 5.16504Z" fill="url(#paint2_linear_0_2217)"/>
<path d="M19.781 9.39299L15.481 5.79299C15.3623 5.69353 15.209 5.64533 15.0548 5.65903C14.9006 5.67272 14.7582 5.74718 14.659 5.86599L14.176 6.44199C14.0765 6.56061 14.0283 6.71393 14.042 6.86812C14.0557 7.02232 14.1301 7.16474 14.249 7.26399L15.896 8.64299L13.47 10.943C13.3718 11.036 13.3086 11.1599 13.291 11.294L13.248 11.619L9.51196 11.467L5.53696 9.08299L8.99396 10.108V10.035C8.99396 8.94643 8.11151 8.06399 7.02296 8.06399H3.50496C2.4164 8.06399 1.53396 8.94643 1.53396 10.035L0.00695809 22.925C-0.0222419 23.136 0.0413326 23.3494 0.181289 23.5101C0.321245 23.6707 0.523885 23.763 0.736958 23.763H1.52396L1.49896 32.636C1.4995 33.5658 2.25111 34.3206 3.18096 34.325C4.11198 34.3244 4.8672 33.571 4.86996 32.64L4.89496 23.757H5.63396V32.635C5.65627 33.5521 6.40611 34.2839 7.32346 34.2839C8.2408 34.2839 8.99065 33.5521 9.01296 32.635V23.757H9.58696C9.7978 23.7571 9.99858 23.6668 10.1385 23.5091C10.2784 23.3514 10.3441 23.1413 10.319 22.932L9.43296 15.562C8.53296 15.525 8.12096 15.588 7.69896 15.162L4.08696 11.493L8.36996 14.061C8.57204 14.1824 8.80139 14.2512 9.03696 14.261L12.875 14.417L10.781 30.223C10.7118 30.7473 10.8672 31.2764 11.209 31.68C11.3288 31.1723 11.587 30.7078 11.955 30.338C12.055 29.555 13.983 15.032 14.055 14.465C14.8282 14.5672 15.5378 14.0232 15.64 13.25C15.7421 12.4768 15.1982 11.7672 14.425 11.665V11.647L16.798 9.39999L18.544 10.862C18.6626 10.9614 18.8159 11.0096 18.9701 10.9959C19.1243 10.9823 19.2667 10.9078 19.366 10.789L19.849 10.213C20.0559 9.96756 20.0255 9.60097 19.781 9.39299Z" fill="url(#paint3_linear_0_2217)"/>
<path fill-rule="evenodd" clip-rule="evenodd" d="M11.9561 32.327C11.9561 31.2225 12.8515 30.327 13.9561 30.327C15.0606 30.327 15.9561 31.2225 15.9561 32.327C15.9561 33.4316 15.0606 34.327 13.9561 34.327C12.8515 34.327 11.9561 33.4316 11.9561 32.327ZM13.3011 32.327C13.3011 32.6888 13.5943 32.982 13.9561 32.982C14.1298 32.982 14.2964 32.913 14.4192 32.7902C14.542 32.6673 14.6111 32.5007 14.6111 32.327C14.6111 31.9653 14.3178 31.672 13.9561 31.672C13.5943 31.672 13.3011 31.9653 13.3011 32.327Z" fill="url(#paint4_linear_0_2217)"/>
<path fill-rule="evenodd" clip-rule="evenodd" d="M22.4742 30.416H23.2802C23.379 30.416 23.4737 30.4557 23.5429 30.5263C23.6121 30.5968 23.6501 30.6922 23.6482 30.791V32.591C23.6482 32.7943 23.4834 32.959 23.2802 32.959H22.4742V32.981C22.4742 33.6907 21.8989 34.266 21.1892 34.266H16.0052C16.829 33.3972 17.0146 32.103 16.4682 31.0377C15.9218 29.9723 14.7624 29.368 13.5762 29.53C13.7612 29.0235 14.2429 28.6864 14.7822 28.686H21.1892C21.8989 28.686 22.4742 29.2613 22.4742 29.971V30.416ZM20.9952 31.759C21.1984 31.759 21.3632 31.5943 21.3632 31.391V29.998C21.3632 29.7948 21.1984 29.63 20.9952 29.63H18.5032C18.2999 29.63 18.1352 29.7948 18.1352 29.998V31.391C18.1352 31.5943 18.2999 31.759 18.5032 31.759H20.9952Z" fill="url(#paint5_linear_0_2217)"/>
<defs>
<linearGradient id="paint0_linear_0_2217" x1="23.8218" y1="0.00317383" x2="23.8218" y2="5.614" gradientUnits="userSpaceOnUse">
<stop stop-color="#6C4DDA" stop-opacity="0.6"/>
<stop offset="1" stop-color="#522ED2"/>
</linearGradient>
<linearGradient id="paint1_linear_0_2217" x1="2.35986" y1="0.948975" x2="2.35986" y2="6.78497" gradientUnits="userSpaceOnUse">
<stop stop-color="#6C4DDA" stop-opacity="0.6"/>
<stop offset="1" stop-color="#522ED2"/>
</linearGradient>
<linearGradient id="paint2_linear_0_2217" x1="17.686" y1="5.16504" x2="17.686" y2="18.451" gradientUnits="userSpaceOnUse">
<stop stop-color="#6C4DDA" stop-opacity="0.6"/>
<stop offset="1" stop-color="#522ED2"/>
</linearGradient>
<linearGradient id="paint3_linear_0_2217" x1="0" y1="5.65674" x2="0" y2="34.325" gradientUnits="userSpaceOnUse">
<stop stop-color="#6C4DDA" stop-opacity="0.6"/>
<stop offset="1" stop-color="#522ED2"/>
</linearGradient>
<linearGradient id="paint4_linear_0_2217" x1="11.9561" y1="30.327" x2="11.9561" y2="34.327" gradientUnits="userSpaceOnUse">
<stop stop-color="#6C4DDA" stop-opacity="0.6"/>
<stop offset="1" stop-color="#522ED2"/>
</linearGradient>
<linearGradient id="paint5_linear_0_2217" x1="13.5762" y1="28.686" x2="13.5762" y2="34.266" gradientUnits="userSpaceOnUse">
<stop stop-color="#6C4DDA" stop-opacity="0.6"/>
<stop offset="1" stop-color="#522ED2"/>
</linearGradient>
</defs>
</svg>
