<svg width="240" height="214" viewBox="0 0 240 214" fill="none" xmlns="http://www.w3.org/2000/svg">
<path d="M124.49 202.911C175.819 202.911 217.43 161.3 217.43 109.971C217.43 58.6417 175.819 17.031 124.49 17.031C73.1606 17.031 31.5499 58.6417 31.5499 109.971C31.5918 161.283 73.178 202.869 124.49 202.911Z" fill="#EAEEF9"/>
<path d="M66.011 84.5649H178.358C182.745 84.6373 186.283 88.1779 186.352 92.5649V163.465C186.28 167.85 182.743 171.387 178.358 171.459H66.011C61.6263 171.387 58.0892 167.85 58.017 163.465V92.5649C58.086 88.1779 61.624 84.6373 66.011 84.5649Z" fill="url(#paint0_linear_0_4291)"/>
<path d="M232.6 86.7373C234.453 85.0222 235.25 82.449 234.691 79.9869C234.132 77.5249 232.302 75.548 229.89 74.8009C227.479 74.0539 224.852 74.6502 222.999 76.3653C221.612 77.6318 220.791 79.4011 220.718 81.2778C220.646 83.1544 221.329 84.9818 222.614 86.3513C225.294 89.1518 229.712 89.3226 232.6 86.7373Z" fill="#EAEEF9"/>
<path d="M232.986 55.052C234.189 53.9308 234.274 52.0531 233.177 50.828C232.056 49.6243 230.179 49.5385 228.953 50.635C227.748 51.7558 227.662 53.635 228.76 54.861C229.274 55.4815 230.026 55.8561 230.831 55.8924C231.635 55.9288 232.418 55.6236 232.986 55.052Z" fill="#EAEEF9"/>
<path d="M157.52 11.4632C158.338 10.7056 158.421 9.44067 157.71 8.58219C156.953 7.76436 155.69 7.67966 154.831 8.38919C154.011 9.14607 153.926 10.4118 154.638 11.2712C155.395 12.0906 156.661 12.1749 157.52 11.4632Z" fill="#EAEEF9"/>
<path d="M227.167 47.1171L199.186 96.9771C198.758 97.7781 198.019 98.3674 197.143 98.6062C196.267 98.845 195.331 98.7122 194.556 98.2391L146.59 70.2581C145.789 69.8306 145.2 69.0923 144.961 68.2169C144.722 67.3415 144.854 66.4062 145.326 65.6311L182.143 2.09412C182.571 1.29298 183.31 0.70348 184.186 0.464483C185.062 0.225485 185.998 0.358111 186.773 0.831124L221.486 21.0311L227.167 47.1171Z" fill="#F2F6FA"/>
<path d="M221.484 21.0281L213.491 34.4921C212.421 36.4134 213.074 38.837 214.963 39.9621L226.955 46.9051" fill="#D5DAE6"/>
<path fill-rule="evenodd" clip-rule="evenodd" d="M185.511 51.745L183.828 55.531L187.62 57.634L189.934 54.69C190.346 54.2885 190.853 53.9987 191.408 53.848C192.089 53.627 192.794 53.486 193.508 53.428L195.824 53.217C196.703 53.2084 197.567 52.9922 198.347 52.586C199.256 52.2218 200.107 51.7254 200.872 51.113C201.685 50.2938 202.391 49.3744 202.972 48.377C203.608 47.2721 204.035 46.0596 204.233 44.8C204.301 43.6614 204.159 42.5201 203.813 41.433C203.438 40.2473 202.789 39.1664 201.919 38.278C201.065 37.2156 199.987 36.3542 198.763 35.755C197.923 35.333 197.081 34.913 196.029 34.491C195.606 34.3851 195.131 34.2801 194.655 34.1752C194.184 34.0711 193.713 33.9671 193.293 33.862H190.77C189.993 33.8364 189.216 33.9073 188.456 34.073L188.247 37.017C188.319 37.5441 188.628 38.009 189.087 38.278C189.333 38.4459 189.632 38.5207 189.928 38.489H191.401C192.039 38.4546 192.678 38.5259 193.293 38.7C194.117 38.9207 194.9 39.2755 195.609 39.75C196.143 40.1178 196.637 40.5416 197.081 41.014C197.483 41.4244 197.773 41.9313 197.923 42.486C198.11 42.9535 198.182 43.4591 198.132 43.96C197.958 44.5337 197.748 45.0958 197.503 45.643C197.181 46.4516 196.585 47.1218 195.82 47.537C195.085 47.9096 194.307 48.192 193.504 48.378C192.683 48.6193 191.836 48.7603 190.981 48.798C190.56 48.9035 190.192 48.9563 189.824 49.009C189.456 49.0618 189.088 49.1145 188.667 49.22C187.999 49.4108 187.362 49.6943 186.773 50.062C186.238 50.5273 185.808 51.101 185.511 51.745ZM177.937 65.84C178.303 66.2508 178.728 66.6053 179.198 66.892C179.852 67.2206 180.574 67.3931 181.306 67.396C181.588 67.3963 181.87 67.3688 182.147 67.314C183.14 67.0906 183.997 66.4665 184.514 65.5897C185.031 64.7129 185.163 63.6613 184.878 62.684C184.667 62.264 184.456 61.843 184.247 61.421C183.881 61.0103 183.455 60.6561 182.985 60.37C182.111 59.8091 181.036 59.6558 180.04 59.95C179.758 59.95 179.476 60.1379 179.195 60.3255C179.055 60.4184 178.916 60.5112 178.777 60.581C178.366 60.9471 178.012 61.3721 177.726 61.842C177.492 62.2252 177.348 62.6563 177.304 63.103C177.095 63.5721 177.095 64.108 177.304 64.577C177.304 64.8582 177.492 65.1397 177.68 65.4208C177.773 65.5607 177.867 65.7005 177.937 65.84Z" fill="#585CE5"/>
<path d="M47.2869 25.4481L79.2679 58.8991C79.7966 59.445 80.0742 60.1862 80.0341 60.9451C79.9941 61.7039 79.6401 62.4118 79.0569 62.8991L46.4449 93.8221C45.8987 94.3499 45.1576 94.6269 44.399 94.5869C43.6405 94.5469 42.9327 94.1934 42.4449 93.6111L1.63194 50.4841C1.10331 49.9382 0.82571 49.1969 0.865739 48.4381C0.905768 47.6793 1.25981 46.9713 1.84294 46.4841L25.6169 24.1841L47.2869 25.4481Z" fill="#F2F6FA"/>
<path d="M25.406 23.7622L34.242 33.0192C35.5264 34.2835 37.5876 34.2835 38.872 33.0192L47.072 25.2362" fill="#D5DAE6"/>
<path fill-rule="evenodd" clip-rule="evenodd" d="M39.9239 57.2163C40.1504 57.7843 40.5105 58.2892 40.9739 58.6883L43.5009 61.0023L46.0239 58.6883L44.3419 56.1543C44.0187 55.8181 43.8644 55.3541 43.9219 54.8913C43.9219 54.5758 43.9741 54.3128 44.0264 54.0498C44.0786 53.7868 44.1309 53.5238 44.1309 53.2083C44.2369 52.8913 44.2896 52.574 44.3424 52.2568C44.3946 51.9425 44.4469 51.6283 44.5509 51.3143V49.2143C44.3419 48.3743 44.1309 47.5313 43.9219 46.9003C43.6359 46.0165 43.1284 45.2206 42.4479 44.5883C41.6576 43.9557 40.813 43.3942 39.9239 42.9103C39.0307 42.6671 38.1129 42.5255 37.1879 42.4883C36.2414 42.4965 35.3082 42.7119 34.4539 43.1193C33.4192 43.5519 32.4871 44.1972 31.7179 45.0133C31.0981 45.5899 30.5336 46.2234 30.0319 46.9053C29.6043 47.4884 29.2519 48.1231 28.9829 48.7943C28.9038 49.0309 28.8246 49.2679 28.7455 49.505C28.6136 49.9 28.4818 50.2951 28.3499 50.6883C28.1119 51.2958 27.9708 51.937 27.9319 52.5883L30.2499 53.0063C30.6719 53.2173 31.3029 53.2173 31.5139 52.7953C31.7249 52.5863 31.9319 52.3753 31.9319 52.1643C31.9163 51.8026 31.9869 51.4423 32.1379 51.1133C32.3103 50.6069 32.5219 50.1147 32.7709 49.6413C32.9799 49.4313 33.1891 49.1698 33.3983 48.9083C33.6096 48.6443 33.8209 48.3803 34.0319 48.1693C34.4001 47.8174 34.8268 47.5325 35.2929 47.3273C35.6767 47.0933 36.1085 46.949 36.5559 46.9053C36.9878 46.8718 37.4213 46.9442 37.8189 47.1163C38.2525 47.2738 38.6222 47.5697 38.8709 47.9583C39.3005 48.5424 39.654 49.1789 39.9229 49.8523C40.0957 50.4679 40.1663 51.1078 40.1319 51.7463C40.1661 52.3844 40.0958 53.0238 39.9239 53.6393C39.9239 53.9535 39.8712 54.2685 39.8185 54.5838C39.7657 54.8995 39.7129 55.2155 39.7129 55.5313C39.6788 56.1012 39.7503 56.6724 39.9239 57.2163ZM47.2859 67.3133C47.5734 67.7553 48.0302 68.0595 48.5489 68.1543C48.8979 68.2635 49.2622 68.3161 49.6279 68.3103C50.0448 68.308 50.4598 68.255 50.8639 68.1523C51.2778 68.0733 51.6504 67.8505 51.9159 67.5233C52.2588 67.227 52.5443 66.87 52.7579 66.4703C52.7579 66.2609 52.8101 66.0508 52.8623 65.8405C52.9146 65.63 52.9669 65.4194 52.9669 65.2093C53.0002 64.7776 52.9285 64.3442 52.7579 63.9463C52.3123 62.6982 51.1361 61.86 49.8109 61.8463C49.3796 61.813 48.9468 61.8854 48.5499 62.0573C48.1726 62.2197 47.8188 62.4319 47.4979 62.6883C46.8598 63.2921 46.4818 64.1206 46.4439 64.9983C46.4104 65.4302 46.4828 65.8637 46.6549 66.2613C46.8182 66.6381 47.0304 66.9918 47.2859 67.3133Z" fill="#585CE5"/>
<path d="M130.811 78.0432L118.398 122.435C118.199 123.177 117.7 123.802 117.022 124.161C116.343 124.52 115.546 124.581 114.821 124.329L71.6919 111.705C70.9504 111.507 70.3249 111.008 69.9656 110.33C69.6063 109.652 69.5456 108.854 69.7979 108.129L86.6279 50.9032C86.827 50.1618 87.3255 49.5365 88.004 49.1773C88.6825 48.818 89.4798 48.7571 90.2049 49.0092L121.553 58.2672L130.811 78.0432Z" fill="#F2F6FA"/>
<path d="M121.558 58.3442L117.558 70.8902C117.144 72.6268 118.161 74.3836 119.873 74.8902L130.973 78.0252" fill="#D5DAE6"/>
<path fill-rule="evenodd" clip-rule="evenodd" d="M99.456 89.1943L98.827 92.5613L102.197 94.0333L103.454 91.2913C103.536 90.8198 103.854 90.423 104.296 90.2393C104.506 90.1336 104.77 90.0284 105.033 89.9231C105.296 89.8184 105.558 89.7136 105.768 89.6083L107.662 88.9793C108.335 88.7094 108.971 88.3556 109.556 87.9263C110.217 87.4754 110.788 86.9045 111.239 86.2433C111.824 85.494 112.253 84.6356 112.502 83.7183C112.788 82.7642 112.86 81.7586 112.713 80.7733C112.452 79.8975 112.099 79.0518 111.66 78.2503C111.069 77.4492 110.361 76.7413 109.56 76.1503C108.694 75.4543 107.689 74.9523 106.613 74.6783C105.793 74.4357 104.946 74.2939 104.091 74.2563H101.777C101.056 74.2738 100.344 74.4166 99.672 74.6783C99.0426 74.889 98.4116 75.099 97.779 75.3083L98.83 77.6223C98.8583 78.0748 99.2186 78.4355 99.671 78.4643C99.9651 78.6114 100.156 78.5535 100.316 78.5049C100.385 78.4837 100.449 78.4643 100.513 78.4643C100.86 78.3744 101.211 78.3049 101.566 78.2563C102.038 78.0828 102.541 78.0109 103.043 78.0453C103.75 78.0003 104.459 78.0716 105.143 78.2563C105.648 78.4271 106.139 78.6371 106.611 78.8843C106.759 79.0319 106.907 79.1536 107.046 79.2678C107.302 79.4786 107.527 79.6636 107.664 79.9373C107.897 80.3206 108.041 80.7517 108.084 81.1983V82.2493C107.911 82.9644 107.548 83.6191 107.032 84.1433C106.521 84.5681 105.955 84.9222 105.349 85.1963C104.759 85.5625 104.122 85.8455 103.455 86.0373C102.907 86.2821 102.345 86.4929 101.772 86.6683C101.203 86.8945 100.697 87.2555 100.298 87.7203C99.8255 88.074 99.5206 88.6077 99.456 89.1943ZM96.3555 102.931C96.4757 102.973 96.6014 103.017 96.727 103.08C97.0106 103.174 97.3074 103.221 97.606 103.219C98.106 103.216 98.5985 103.097 99.044 102.869C99.7667 102.532 100.315 101.907 100.555 101.147C100.794 100.386 100.704 99.5599 100.305 98.8693L100.304 98.8687C100.095 98.6595 99.6738 98.2381 99.463 98.0293C99.1425 97.7734 98.7894 97.5612 98.413 97.3983C97.643 97.1593 96.8097 97.2356 96.096 97.6103C96.0316 97.6747 95.9482 97.7388 95.8575 97.8086C95.6492 97.9687 95.4019 98.1589 95.255 98.4513C94.9605 98.5993 94.8725 98.85 94.7734 99.1321C94.7312 99.2523 94.687 99.3782 94.624 99.5043C94.6791 99.8689 94.6044 100.241 94.413 100.556C94.5191 100.767 94.5718 100.925 94.6248 101.084C94.6771 101.241 94.7296 101.398 94.834 101.607C94.8978 101.671 94.9617 101.754 95.0315 101.845C95.1915 102.053 95.3826 102.302 95.675 102.447C95.8222 102.743 96.0736 102.832 96.3555 102.931Z" fill="#585CE5"/>
<path d="M232.215 153.992L191.4 176.082C190.005 176.775 188.314 176.211 187.613 174.82L167.206 135.058C166.513 133.664 167.077 131.971 168.468 131.271L221.485 103.288C222.88 102.597 224.572 103.161 225.272 104.552L240 133.373L232.215 153.992Z" fill="#F2F6FA"/>
<path d="M239.789 133.795L228.428 139.686C226.957 140.628 226.343 142.47 226.955 144.106L232.004 154.206" fill="#D5DAE6"/>
<path fill-rule="evenodd" clip-rule="evenodd" d="M208.445 144.736C209.113 145.041 209.819 145.253 210.545 145.367V145.366C211.302 145.577 212.102 145.577 212.859 145.366C213.738 145.213 214.59 144.929 215.386 144.524C216.293 144.079 217.085 143.429 217.699 142.627C218.138 141.826 218.491 140.98 218.752 140.104C218.857 139.125 218.857 138.137 218.752 137.157C218.769 136.114 218.476 135.089 217.91 134.212C217.542 133.433 217.044 132.723 216.436 132.112C216.007 131.499 215.514 130.933 214.966 130.424C214.514 129.875 213.936 129.444 213.281 129.166C212.965 129.061 212.702 128.903 212.439 128.745C212.176 128.587 211.913 128.43 211.598 128.324L210.541 130.848C210.331 131.168 210.331 131.581 210.541 131.9C210.682 132.181 210.821 132.274 210.961 132.367C211.031 132.414 211.102 132.461 211.172 132.531C211.277 132.636 211.434 132.741 211.591 132.846C211.75 132.952 211.909 133.058 212.014 133.164C212.404 133.391 212.759 133.674 213.066 134.005C213.491 134.517 213.845 135.083 214.118 135.69C214.378 136.158 214.59 136.651 214.749 137.162C214.749 137.391 214.777 137.592 214.802 137.776C214.846 138.099 214.883 138.368 214.749 138.637C214.651 139.543 214.095 140.336 213.277 140.737C212.637 141.111 211.917 141.327 211.177 141.368C210.81 141.277 210.524 141.226 210.265 141.179C209.929 141.119 209.64 141.067 209.283 140.948C208.635 140.707 208.003 140.426 207.389 140.107C206.926 139.781 206.433 139.499 205.917 139.265C205.374 139.092 204.803 139.02 204.234 139.054C203.639 138.965 203.033 139.117 202.551 139.476L199.817 141.368L201.289 144.524L204.025 143.473C204.236 143.053 204.867 143.051 205.288 143.262C205.498 143.367 205.761 143.473 206.023 143.578C206.287 143.684 206.551 143.789 206.762 143.895L208.445 144.736ZM190.766 146.838C191.05 147.578 191.682 148.13 192.453 148.312H193.503C193.935 148.346 194.368 148.273 194.766 148.101C195.461 147.758 195.991 147.153 196.24 146.419V145.367C196.274 144.935 196.201 144.502 196.029 144.104C195.743 143.366 195.113 142.815 194.343 142.63C194.284 142.63 194.208 142.614 194.12 142.594C193.896 142.545 193.593 142.479 193.29 142.63C192.862 142.472 192.382 142.552 192.029 142.841C191.9 143.099 191.612 143.198 191.361 143.285C191.202 143.34 191.058 143.391 190.977 143.472C190.977 143.782 190.864 143.977 190.72 144.224C190.668 144.315 190.611 144.412 190.555 144.524C190.555 144.584 190.538 144.659 190.519 144.747C190.47 144.971 190.405 145.274 190.555 145.577C190.522 146.008 190.594 146.441 190.766 146.838Z" fill="#CED6E2"/>
<path d="M188.456 130.218V165.141C188.376 169.637 184.752 173.264 180.256 173.347H64.7449C60.2484 173.265 56.6238 169.638 56.5449 165.141V127.273" stroke="#1676EE" stroke-width="3" stroke-linecap="round" stroke-linejoin="round"/>
<path d="M184.037 107.707H144.485C140.64 107.677 136.91 109.02 133.966 111.494L123.447 119.907C120.453 122.293 116.756 123.624 112.928 123.694H67.8999C63.3746 123.702 59.7082 127.369 59.6999 131.894C59.6666 132.326 59.739 132.76 59.9109 133.158L68.1109 176.286C68.7744 180.329 72.2156 183.33 76.3109 183.439H172.458C176.54 183.494 180.039 180.532 180.658 176.496L192.243 117.175C192.573 115.023 192.022 112.829 190.716 111.088C189.41 109.346 187.458 108.204 185.3 107.918C184.902 107.746 184.469 107.674 184.037 107.707Z" fill="white"/>
<path d="M194.97 99.917H147.845C143.331 99.9693 138.963 101.524 135.432 104.336L122.808 114.645C119.309 117.514 114.92 119.077 110.395 119.064H56.327C53.7035 119.06 51.1863 120.101 49.331 121.956C47.4757 123.811 46.4348 126.327 46.438 128.951C46.4044 129.451 46.4763 129.953 46.649 130.423L56.538 182.811C57.2828 187.716 61.4642 191.364 66.425 191.437H181.085C185.981 191.39 190.144 187.848 190.974 183.022L204.649 111.279C205.501 105.881 201.837 100.807 196.445 99.917H194.97Z" fill="url(#paint1_linear_0_4291)"/>
<path d="M104.092 155.046C106.865 155.009 109.104 152.769 109.141 149.995C109.103 147.223 106.864 144.984 104.092 144.946C101.319 144.984 99.0796 147.222 99.0409 149.995C99.0775 152.77 101.318 155.01 104.092 155.046Z" fill="#585CE5"/>
<path d="M143.432 154.205C146.206 154.167 148.445 151.928 148.483 149.154C148.445 146.38 146.205 144.142 143.432 144.105C140.659 144.143 138.421 146.381 138.383 149.154C138.42 151.927 140.659 154.167 143.432 154.205Z" fill="#585CE5"/>
<path d="M134.385 162.615H131.651C130.582 160.394 128.648 158.709 126.302 157.953C123.956 157.197 121.403 157.437 119.238 158.615C117.472 159.431 116.054 160.849 115.238 162.615H112.506C114.797 156.539 121.555 153.443 127.653 155.676C130.761 156.957 133.199 159.47 134.385 162.615Z" fill="#585CE5"/>
<path fill-rule="evenodd" clip-rule="evenodd" d="M194.767 190.809C184.132 199.178 168.849 197.957 159.678 188.005C150.507 178.054 150.536 162.722 159.744 152.805C168.953 142.888 184.241 141.724 194.844 150.133C205.447 158.542 207.796 173.693 200.237 184.918L216.857 201.538C218.113 202.642 218.542 204.415 217.929 205.971C217.316 207.527 215.792 208.53 214.121 208.48H213.966C211.838 208.481 212.238 208.28 194.767 190.809Z" stroke="#585CE5" stroke-width="10"/>
<path d="M91.679 141.369L103.039 135.269" stroke="#585CE5" stroke-width="1.5"/>
<path d="M153.322 138.425L141.96 132.112" stroke="#585CE5" stroke-width="1.5"/>
<defs>
<linearGradient id="paint0_linear_0_4291" x1="97.9292" y1="90.9951" x2="97.9292" y2="123.841" gradientUnits="userSpaceOnUse">
<stop stop-color="#B0BACC"/>
<stop offset="1" stop-color="#969EAE"/>
</linearGradient>
<linearGradient id="paint1_linear_0_4291" x1="43.7381" y1="97.812" x2="43.7381" y2="192.444" gradientUnits="userSpaceOnUse">
<stop stop-color="#FDFEFF"/>
<stop offset="0.996" stop-color="#ECF0F5"/>
</linearGradient>
</defs>
</svg>
