<svg width="24" height="18" viewBox="0 0 24 18" fill="none" xmlns="http://www.w3.org/2000/svg">
<mask id="mask0_0_5289" style="mask-type:luminance" maskUnits="userSpaceOnUse" x="0" y="0" width="24" height="18">
<path fill-rule="evenodd" clip-rule="evenodd" d="M22 18H2C0.89543 18 0 17.1046 0 16V12C0 11.7239 0.223858 11.5 0.5 11.5C1.88071 11.5 3 10.3807 3 9C3 7.61929 1.88071 6.5 0.5 6.5C0.367392 6.5 0.240215 6.44732 0.146447 6.35355C0.0526784 6.25979 0 6.13261 0 6V2C0 0.89543 0.89543 0 2 0H22C23.1046 0 24 0.89543 24 2V6C24 6.27614 23.7761 6.5 23.5 6.5C22.1193 6.5 21 7.61929 21 9C21 10.3807 22.1193 11.5 23.5 11.5C23.7761 11.5 24 11.7239 24 12V16C24 17.1046 23.1046 18 22 18ZM6.5 14C6.22386 14 6 14.2239 6 14.5V15.5C6 15.7761 6.22386 16 6.5 16C6.77614 16 7 15.7761 7 15.5V14.5C7 14.2239 6.77614 14 6.5 14ZM16 9C14.7676 9.15643 13.8821 10.2633 14 11.5C13.8821 12.7367 14.7676 13.8436 16 14C17.2324 13.8436 18.1179 12.7367 18 11.5C18.1179 10.2633 17.2324 9.15643 16 9ZM16.5 4C16.3328 4.00009 16.1766 4.08377 16.084 4.223L10.084 13.223C9.97865 13.3716 9.96243 13.5657 10.0416 13.7297C10.1209 13.8937 10.283 14.0016 10.4649 14.0115C10.6467 14.0213 10.8195 13.9315 10.916 13.777L16.916 4.777C17.0689 4.54722 17.0066 4.23705 16.777 4.084C16.6948 4.02968 16.5985 4.00049 16.5 4ZM6.5 10C6.22386 10 6 10.2239 6 10.5V11.5C6 11.7761 6.22386 12 6.5 12C6.77614 12 7 11.7761 7 11.5V10.5C7 10.2239 6.77614 10 6.5 10ZM11 4C9.76756 4.15643 8.88208 5.26328 9 6.5C8.88208 7.73672 9.76756 8.84357 11 9C12.2324 8.84357 13.1179 7.73672 13 6.5C13.1179 5.26328 12.2324 4.15643 11 4ZM6.5 6C6.22386 6 6 6.22386 6 6.5V7.5C6 7.77614 6.22386 8 6.5 8C6.77614 8 7 7.77614 7 7.5V6.5C7 6.22386 6.77614 6 6.5 6ZM6.5 1.874C6.22386 1.874 6 2.09786 6 2.374V3.5C6 3.77614 6.22386 4 6.5 4C6.77614 4 7 3.77614 7 3.5V2.375C7 2.09886 6.77614 1.875 6.5 1.875V1.874Z" fill="white"/>
</mask>
<g mask="url(#mask0_0_5289)">
<rect x="-3" y="-6" width="30" height="30" fill="white"/>
<rect x="-3" y="-6" width="30" height="30" fill="white"/>
</g>
</svg>
