<svg width="35" height="38" viewBox="0 0 35 38" fill="none" xmlns="http://www.w3.org/2000/svg">
<path fill-rule="evenodd" clip-rule="evenodd" d="M34.076 28.84L32.701 21.873C32.6019 21.4655 32.1994 21.2085 31.788 21.29C31.5909 21.3143 31.4122 21.4178 31.293 21.5766C31.1738 21.7355 31.1244 21.9359 31.156 22.132L31.742 25.107L27.055 25.629C26.7156 23.9636 26.8107 22.239 27.331 20.621L29.231 12.379L29.892 15.73C29.9734 16.0884 30.2966 16.3396 30.664 16.33C30.7116 16.33 30.7591 16.326 30.806 16.318C31.0033 16.2937 31.1822 16.19 31.3014 16.031C31.4206 15.8719 31.47 15.6712 31.438 15.475L29.924 7.78799C29.7101 6.60274 28.8623 5.63085 27.717 5.25799L22.646 2.88399L21.434 0.424989C21.2954 0.159333 21.0186 -0.00520305 20.719 -1.07348e-05H13.37C13.0705 -0.0049682 12.7938 0.1595 12.655 0.424989L11.443 2.88399L6.37201 5.25599C5.22665 5.62866 4.37877 6.60064 4.16502 7.78599L0.0130151 28.84C-0.0252327 29.0383 0.0264054 29.2434 0.154015 29.4C0.288076 29.5637 0.481521 29.6676 0.692015 29.689L5.98501 30.279L5.06301 34.12C4.98686 34.4702 5.18249 34.8225 5.52002 34.943L10.82 37.043C11.0821 37.1468 11.3788 37.1123 11.61 36.951L17.046 33.078L22.482 36.951C22.6225 37.0498 22.7902 37.1026 22.962 37.102C23.0681 37.102 23.1733 37.082 23.272 37.043L28.572 34.943C28.9095 34.8225 29.1052 34.4702 29.029 34.12L28.101 30.279L33.394 29.689C33.6045 29.6676 33.798 29.5637 33.932 29.4C34.0596 29.2434 34.1113 29.0383 34.073 28.84H34.076ZM22.029 4.99399L23.275 7.26999L21.66 8.65099C21.4169 8.85092 21.341 9.19064 21.476 9.47499L22.588 11.794L17.83 17.826V12.326L22.029 4.99399ZM20.213 1.44899H13.875L12.919 3.39099L17.044 10.6L21.17 3.39099L20.213 1.44899ZM12.06 4.99399L16.26 12.328V17.828L11.501 11.795L12.613 9.47599C12.748 9.19164 12.6721 8.85192 12.429 8.65199L10.814 7.26999L12.06 4.99399ZM6.76001 20.621L4.86001 12.375L2.34901 25.107L7.03601 25.629C7.37541 23.9636 7.28036 22.239 6.76001 20.621ZM1.70802 28.343L2.06402 26.536L6.75802 27.059L6.32601 28.859L1.70802 28.343ZM6.73601 33.85L11.013 35.543L16.259 31.8V20.289L9.96502 12.309C9.80104 12.1054 9.76874 11.8256 9.88202 11.59L10.95 9.35799L9.31301 7.95799C9.05839 7.74928 8.98826 7.38896 9.14602 7.09999L10.264 5.05999L7.07801 6.54799C6.23501 6.94299 5.82701 7.31099 5.71701 7.95699C5.71535 7.9872 5.71167 8.01727 5.70602 8.04699L5.70101 8.07399C5.69365 8.96317 5.82006 9.84841 6.07601 10.7L8.29301 20.325C8.52993 21.2339 8.69477 22.1601 8.78601 23.095H11.975C12.2482 23.0723 12.511 23.2052 12.6546 23.4387C12.7982 23.6723 12.7982 23.9667 12.6546 24.2003C12.511 24.4338 12.2482 24.5667 11.975 24.544H8.74502C8.69802 25.019 8.62401 25.564 8.52402 26.264L8.48602 26.533C8.48506 26.5402 8.48319 26.5487 8.4815 26.5564C8.47965 26.5649 8.47801 26.5723 8.47801 26.576V26.597L7.70502 29.814L6.73601 33.85ZM23.075 35.543L17.83 31.8V20.289L24.124 12.309C24.288 12.1054 24.3203 11.8256 24.207 11.59L23.139 9.36199L24.776 7.96199C25.0306 7.75328 25.1008 7.39296 24.943 7.10399L23.825 5.05999L27.007 6.54799C27.849 6.94199 28.258 7.30999 28.368 7.95499C28.3696 7.98554 28.3733 8.01594 28.379 8.04599L28.385 8.07599C28.393 8.96216 28.2687 9.84456 28.016 10.694L25.796 20.32C25.5591 21.2289 25.3943 22.1551 25.303 23.09H22.11C21.8368 23.0673 21.5741 23.2002 21.4305 23.4337C21.2869 23.6673 21.2869 23.9617 21.4305 24.1953C21.5741 24.4288 21.8368 24.5617 22.11 24.539H25.34C25.3865 25.0093 25.4615 25.5462 25.5581 26.2381L25.5581 26.2383L25.561 26.259L25.599 26.528C25.599 26.5376 25.6014 26.5473 25.6038 26.5573L25.6039 26.5573C25.605 26.5618 25.6061 26.5663 25.607 26.571C25.609 26.581 25.6083 26.5839 25.6077 26.5868C25.6073 26.5882 25.607 26.5897 25.607 26.592L26.38 29.809L27.349 33.845L23.075 35.543ZM27.331 27.06L27.763 28.86L32.381 28.344L32.025 26.537L27.331 27.06Z" fill="white"/>
<path d="M30.514 18.803C30.4889 19.1264 30.6645 19.4321 30.9565 19.5734C31.2484 19.7146 31.5971 19.6625 31.8351 19.4422C32.0731 19.2218 32.1517 18.8781 32.0332 18.5762C31.9147 18.2742 31.6234 18.0758 31.299 18.076C31.0982 18.0682 30.9024 18.1407 30.7551 18.2775C30.6078 18.4143 30.5211 18.6041 30.514 18.805V18.803Z" fill="white"/>
</svg>
