<svg width="39" height="38" viewBox="0 0 39 38" fill="none" xmlns="http://www.w3.org/2000/svg">
<ellipse cx="19.8676" cy="5.81002" rx="2.873" ry="2.514" fill="url(#paint0_linear_0_1930)"/>
<path d="M19.8709 2.53502C20.2227 2.53502 20.5079 2.24983 20.5079 1.89802V1.26102C20.5079 0.909218 20.2227 0.624023 19.8709 0.624023C19.5191 0.624023 19.2339 0.909218 19.2339 1.26102V1.89802C19.2339 2.24983 19.5191 2.53502 19.8709 2.53502Z" fill="url(#paint1_linear_0_1930)"/>
<path d="M15.689 4.04301L16.241 4.36201C16.4383 4.49472 16.6931 4.50647 16.9018 4.39248C17.1105 4.27849 17.2383 4.05775 17.2333 3.82001C17.2283 3.58226 17.0913 3.36711 16.878 3.26201L16.326 2.94301C16.1287 2.81031 15.8738 2.79856 15.6652 2.91255C15.4565 3.02654 15.3286 3.24728 15.3336 3.48502C15.3387 3.72277 15.4757 3.93792 15.689 4.04301Z" fill="url(#paint2_linear_0_1930)"/>
<path d="M16.0088 8.58801C16.1204 8.58816 16.2301 8.55884 16.3268 8.50301L16.8788 8.18401C17.0921 8.07891 17.2291 7.86376 17.2341 7.62601C17.2391 7.38827 17.1113 7.16753 16.9026 7.05354C16.6939 6.93955 16.4391 6.9513 16.2418 7.08401L15.6898 7.40301C15.4396 7.54706 15.3176 7.84129 15.3924 8.12007C15.4672 8.39885 15.7201 8.5925 16.0088 8.59201V8.58801Z" fill="url(#paint3_linear_0_1930)"/>
<path d="M19.2339 9.54398V10.181C19.2339 10.5328 19.5191 10.818 19.8709 10.818C20.2227 10.818 20.5079 10.5328 20.5079 10.181V9.54398C20.5079 9.19218 20.2227 8.90698 19.8709 8.90698C19.5191 8.90698 19.2339 9.19218 19.2339 9.54398Z" fill="url(#paint4_linear_0_1930)"/>
<path d="M22.8617 8.18399L23.4137 8.50299C23.611 8.6357 23.8658 8.64745 24.0745 8.53346C24.2832 8.41947 24.411 8.19873 24.406 7.96099C24.401 7.72324 24.264 7.50808 24.0507 7.40299L23.4987 7.08399C23.198 6.93585 22.8339 7.04611 22.6659 7.33619C22.4979 7.62628 22.5835 7.99692 22.8617 8.18399Z" fill="url(#paint5_linear_0_1930)"/>
<path d="M23.1767 4.447C23.2884 4.44716 23.3981 4.41784 23.4947 4.362L24.0467 4.043C24.3249 3.85593 24.4105 3.48529 24.2425 3.1952C24.0745 2.90512 23.7104 2.79486 23.4097 2.943L22.8577 3.262C22.6076 3.40605 22.4856 3.70029 22.5604 3.97907C22.6352 4.25785 22.8881 4.4515 23.1767 4.451V4.447Z" fill="url(#paint6_linear_0_1930)"/>
<path d="M21.7816 29.082L21.2716 29.762C21.0744 30.0248 21.1094 30.3945 21.3524 30.6155C21.5954 30.8366 21.9667 30.8366 22.2097 30.6155C22.4527 30.3945 22.4877 30.0248 22.2906 29.762L21.7816 29.082Z" fill="url(#paint7_linear_0_1930)"/>
<path d="M18.596 33.1171L18.086 33.7971C17.8888 34.0598 17.9238 34.4295 18.1668 34.6506C18.4099 34.8717 18.7812 34.8717 19.0242 34.6506C19.2672 34.4295 19.3022 34.0598 19.105 33.7971L18.596 33.1171Z" fill="url(#paint8_linear_0_1930)"/>
<path fill-rule="evenodd" clip-rule="evenodd" d="M25.0848 17.447L23.6258 17.265C23.2835 19.0694 21.7064 20.3754 19.8698 20.3754C18.0332 20.3754 16.4561 19.0694 16.1138 17.265L14.6548 17.447C13.0743 17.6497 11.7483 18.7369 11.2398 20.247L9.2168 26.316L12.2248 27.176V24.835C12.2248 24.4832 12.51 24.198 12.8618 24.198C13.2136 24.198 13.4988 24.4832 13.4988 24.835V37.577H26.2408V24.834C26.2408 24.4822 26.526 24.197 26.8778 24.197C27.2296 24.197 27.5148 24.4822 27.5148 24.834V27.175L30.5228 26.315L28.4998 20.246C27.991 18.7363 26.665 17.6495 25.0848 17.447ZM18.5948 36.089C17.8712 36.0888 17.2097 35.6799 16.886 35.0326C16.5623 34.3851 16.6322 33.6101 17.0668 33.031L18.0858 31.672C18.2061 31.5117 18.3949 31.4173 18.5953 31.4173C18.7957 31.4173 18.9845 31.5117 19.1048 31.672L20.1238 33.031C20.5584 33.6101 20.6283 34.3851 20.3045 35.0326C19.9808 35.6802 19.3188 36.0892 18.5948 36.089ZM20.072 30.9976C20.3957 31.6449 21.0572 32.0538 21.7808 32.054C22.5048 32.0542 23.1668 31.6452 23.4905 30.9976C23.8143 30.3501 23.7444 29.5751 23.3098 28.996L22.2908 27.637C22.1705 27.4767 21.9817 27.3823 21.7813 27.3823C21.5809 27.3823 21.3921 27.4767 21.2718 27.637L20.2528 28.996C19.8182 29.5751 19.7483 30.3501 20.072 30.9976Z" fill="url(#paint9_linear_0_1930)"/>
<path d="M38.9658 10.032C38.9262 9.86764 38.8229 9.72577 38.6787 9.63762C38.5345 9.54946 38.3611 9.52226 38.1968 9.56198C32.5184 10.9313 26.7045 11.6602 20.8638 11.735C20.2535 11.3623 19.486 11.3623 18.8758 11.735C13.0351 11.6602 7.22117 10.9313 1.54279 9.56198C1.32146 9.50839 1.08836 9.57695 0.931283 9.74183C0.77421 9.90671 0.71703 10.1429 0.781283 10.3613C0.845536 10.5798 1.02146 10.7474 1.24279 10.801C6.73305 12.1247 12.3488 12.8596 17.9948 12.993C17.8086 13.925 18.3357 14.8522 19.2318 15.169V16.692L17.3718 17.064C17.614 18.2503 18.6575 19.1023 19.8683 19.1023C21.079 19.1023 22.1226 18.2503 22.3648 17.064L20.5048 16.692V14.641C20.5048 14.2892 20.2196 14.004 19.8678 14.004C19.6328 14.0038 19.4171 13.8742 19.3064 13.667C19.1958 13.4597 19.2082 13.2083 19.3388 13.013C19.5148 13.013 19.6918 13.013 19.8678 13.013C20.0438 13.013 20.2208 13.013 20.3968 13.013C20.4672 13.1176 20.5048 13.2409 20.5048 13.367C20.5048 13.7188 20.79 14.004 21.1418 14.004C21.4936 14.004 21.7788 13.7188 21.7788 13.367C21.7787 13.2414 21.7664 13.1161 21.7418 12.993C27.3878 12.8596 33.0035 12.1247 38.4938 10.801C38.6581 10.7614 38.8 10.6581 38.8881 10.5139C38.9763 10.3697 39.0035 10.1963 38.9638 10.032H38.9658Z" fill="url(#paint10_linear_0_1930)"/>
<defs>
<linearGradient id="paint0_linear_0_1930" x1="16.9946" y1="3.29602" x2="16.9946" y2="8.32402" gradientUnits="userSpaceOnUse">
<stop stop-color="#3B99FE"/>
<stop offset="1" stop-color="#3B54FF"/>
</linearGradient>
<linearGradient id="paint1_linear_0_1930" x1="19.2339" y1="0.624023" x2="19.2339" y2="2.53502" gradientUnits="userSpaceOnUse">
<stop stop-color="#3B99FE"/>
<stop offset="1" stop-color="#3B54FF"/>
</linearGradient>
<linearGradient id="paint2_linear_0_1930" x1="15.3335" y1="2.83459" x2="15.3335" y2="4.47043" gradientUnits="userSpaceOnUse">
<stop stop-color="#3B99FE"/>
<stop offset="1" stop-color="#3B54FF"/>
</linearGradient>
<linearGradient id="paint3_linear_0_1930" x1="15.3706" y1="6.97559" x2="15.3706" y2="8.59201" gradientUnits="userSpaceOnUse">
<stop stop-color="#3B99FE"/>
<stop offset="1" stop-color="#3B54FF"/>
</linearGradient>
<linearGradient id="paint4_linear_0_1930" x1="19.2339" y1="8.90698" x2="19.2339" y2="10.818" gradientUnits="userSpaceOnUse">
<stop stop-color="#3B99FE"/>
<stop offset="1" stop-color="#3B54FF"/>
</linearGradient>
<linearGradient id="paint5_linear_0_1930" x1="22.5801" y1="7.01831" x2="22.5801" y2="8.61141" gradientUnits="userSpaceOnUse">
<stop stop-color="#3B99FE"/>
<stop offset="1" stop-color="#3B54FF"/>
</linearGradient>
<linearGradient id="paint6_linear_0_1930" x1="22.5386" y1="2.87732" x2="22.5386" y2="4.451" gradientUnits="userSpaceOnUse">
<stop stop-color="#3B99FE"/>
<stop offset="1" stop-color="#3B54FF"/>
</linearGradient>
<linearGradient id="paint7_linear_0_1930" x1="21.144" y1="29.082" x2="21.144" y2="30.7814" gradientUnits="userSpaceOnUse">
<stop stop-color="#3B99FE"/>
<stop offset="1" stop-color="#3B54FF"/>
</linearGradient>
<linearGradient id="paint8_linear_0_1930" x1="17.9585" y1="33.1171" x2="17.9585" y2="34.8164" gradientUnits="userSpaceOnUse">
<stop stop-color="#3B99FE"/>
<stop offset="1" stop-color="#3B54FF"/>
</linearGradient>
<linearGradient id="paint9_linear_0_1930" x1="9.2168" y1="17.265" x2="9.2168" y2="37.577" gradientUnits="userSpaceOnUse">
<stop stop-color="#3B99FE"/>
<stop offset="1" stop-color="#3B54FF"/>
</linearGradient>
<linearGradient id="paint10_linear_0_1930" x1="0.755371" y1="9.54407" x2="0.755371" y2="19.1023" gradientUnits="userSpaceOnUse">
<stop stop-color="#3B99FE"/>
<stop offset="1" stop-color="#3B54FF"/>
</linearGradient>
</defs>
</svg>
