<svg width="22" height="22" viewBox="0 0 22 22" fill="none" xmlns="http://www.w3.org/2000/svg">
<path fill-rule="evenodd" clip-rule="evenodd" d="M20 22H3C1.35634 22.0105 0.0143024 20.6886 0 19.045V4C0 1.79086 1.79086 0 4 0H15.8C18.0091 0 19.8 1.79086 19.8 4V4.38C20.3755 4.40189 20.9194 4.64854 21.315 5.067C21.7308 5.45933 21.9767 5.99877 22 6.57V20.03C21.9906 21.1258 21.0958 22.0072 20 22ZM18 11.05C16.9016 11.055 16.0147 11.9486 16.018 13.047C16.0213 14.1454 16.9136 15.0336 18.012 15.032C19.1104 15.0303 20 14.1394 20 13.041C19.995 11.9399 19.1011 11.05 18 11.05ZM2.2 3.69C2.2 2.86157 2.87157 2.19 3.7 2.19H16.1C16.9284 2.19 17.6 2.86157 17.6 3.69V4.38H2.2V3.69Z" fill="white"/>
</svg>
