<svg width="19" height="19" viewBox="0 0 19 19" fill="none" xmlns="http://www.w3.org/2000/svg">
<path fill-rule="evenodd" clip-rule="evenodd" d="M16.0141 9.62371C16.0231 9.92712 16.0077 10.2308 15.9681 10.5317L18.0111 12.0297C18.1562 12.1906 18.1927 12.422 18.1041 12.6197L16.2471 15.7507C16.1363 15.9461 15.8949 16.025 15.6901 15.9327L13.3691 15.0247C12.8801 15.3875 12.3505 15.6922 11.7911 15.9327L11.4191 18.3327C11.3597 18.5417 11.1722 18.6883 10.9551 18.6957H7.23813C7.01474 18.7068 6.81709 18.5522 6.77413 18.3327L6.40313 15.9327C5.83856 15.7027 5.30774 15.3972 4.82513 15.0247L2.51313 15.9387C2.30795 16.0229 2.072 15.9458 1.95613 15.7567L0.0991279 12.6257C0.0317907 12.5356 0.00368925 12.4222 0.0211999 12.3111C0.0387105 12.2 0.100348 12.1007 0.192128 12.0357L2.14113 10.5357C2.14113 10.3767 2.12963 10.2292 2.11813 10.0817C2.10663 9.93421 2.09513 9.78671 2.09513 9.62771C2.09513 9.46871 2.10663 9.32121 2.11813 9.17371C2.12963 9.02621 2.14113 8.87871 2.14113 8.71971L0.141128 7.21971C-0.00374268 7.0587 -0.0401906 6.82748 0.0481279 6.62971L1.90513 3.49871C2.01596 3.30333 2.25732 3.22447 2.46213 3.31671L4.78313 4.22471C5.27218 3.86194 5.80173 3.55723 6.36113 3.31671L6.73213 0.916711C6.79152 0.707766 6.97903 0.561073 7.19613 0.553711H10.9091C11.1262 0.561073 11.3137 0.707766 11.3731 0.916711L11.6981 3.31671C12.2627 3.54678 12.7935 3.85222 13.2761 4.22471L15.5971 3.31671C15.8023 3.23251 16.0383 3.30961 16.1541 3.49871L18.0101 6.62571C18.0775 6.71578 18.1056 6.82924 18.0881 6.94032C18.0705 7.05141 18.0089 7.15072 17.9171 7.21571L15.9681 8.71571C15.9681 8.87471 15.9796 9.02221 15.9911 9.16971C16.0026 9.31721 16.0141 9.46471 16.0141 9.62371ZM5.94749 9.57646C5.92109 11.3215 7.30731 12.7612 9.05213 12.8007C9.90569 12.8157 10.7297 12.4883 11.3402 11.8915C11.9506 11.2947 12.2967 10.4784 12.3011 9.62471C12.3012 7.87944 10.8935 6.46087 9.14825 6.44762C7.40304 6.43437 5.9739 7.8314 5.94749 9.57646Z" fill="#1C2340"/>
</svg>
