<svg width="35" height="36" viewBox="0 0 35 36" fill="none" xmlns="http://www.w3.org/2000/svg">
<path fill-rule="evenodd" clip-rule="evenodd" d="M5.575 6.39407C5.78546 6.1348 6.11458 6.00217 6.446 6.04307C6.45015 6.10534 6.45511 6.16276 6.45976 6.21659C6.46407 6.2665 6.46812 6.31333 6.471 6.35807C6.48134 6.90808 6.491 7.4581 6.50067 8.00811C6.52 9.1081 6.53934 10.2081 6.564 11.3081C6.62157 12.4727 6.0842 13.587 5.137 14.2671C4.03105 15.0779 3.38602 16.3739 3.406 17.7451C3.398 18.8491 3.4 19.9561 3.406 21.0561C3.41483 21.7349 3.22354 22.4013 2.856 22.9721L2.59121 23.3904L2.5912 23.3904C2.12452 24.1274 1.6569 24.8659 1.202 25.6101C0.595694 26.5333 0.562791 27.7197 1.117 28.6751C1.455 29.3091 1.795 29.9424 2.137 30.5751L2.1433 30.5868C2.51506 31.2761 2.5189 31.2832 1.966 31.8481C1.55966 32.2301 1.34668 32.7747 1.386 33.3311C1.4282 33.8816 1.72075 34.3823 2.17964 34.6894C2.63852 34.9965 3.21297 35.076 3.738 34.9051C3.86473 34.866 3.9924 34.8291 4.12014 34.7922L4.12031 34.7921L4.12055 34.792L4.12078 34.792L4.12109 34.7919L4.1214 34.7918L4.12171 34.7917L4.12202 34.7916L4.12236 34.7915C4.42933 34.7027 4.73663 34.6138 5.032 34.4961C6.01171 34.0896 7.11615 34.1077 8.082 34.5461C8.98912 34.9256 10.0035 34.9611 10.935 34.6461C11.0683 34.6047 11.2017 34.5689 11.335 34.5331C11.5017 34.4884 11.6683 34.4436 11.835 34.3881C12.6004 34.1319 13.4328 34.1628 14.177 34.4751C15.1603 34.872 16.2608 34.8638 17.238 34.4521C18.0711 34.1196 19.0062 34.156 19.811 34.5521C20.2903 34.7704 20.7991 34.9173 21.321 34.9881C21.9673 35.0404 22.6162 35.0528 23.264 35.0251C23.8663 35.0709 24.4529 34.8195 24.8351 34.3518C25.2173 33.8841 25.3468 33.2591 25.182 32.6781C25.1423 32.5081 25.1036 32.3377 25.0649 32.1672L25.0648 32.1665C24.9595 31.7023 24.854 31.2372 24.726 30.7781C24.646 30.4921 24.698 30.3821 25.004 30.3001C27.1375 29.7273 29.2667 29.1407 31.3964 28.554L31.3981 28.5535L31.868 28.4241C33.0358 28.1785 34.0027 27.364 34.4432 26.255C34.8837 25.1459 34.739 23.8899 34.058 22.9101C32.064 19.8101 30.0697 16.7101 28.075 13.6101C26.651 11.4021 25.2313 9.19174 23.816 6.97907C23.74 6.87351 23.7068 6.74311 23.723 6.61407C24.0864 5.75949 23.7811 4.76739 23 4.26507L18.372 0.504069C17.7234 -0.0761804 16.774 -0.170391 16.024 0.271069C14.4473 1.10307 12.8743 1.9414 11.305 2.78607C11.2395 2.83772 11.1558 2.86032 11.0732 2.8486C10.9907 2.83689 10.9165 2.79189 10.868 2.72407C10.4427 2.29354 10.0123 1.86849 9.58203 1.44351L9.58186 1.44335L9.58179 1.44327L9.58174 1.44322L9.58172 1.44321L9.5817 1.44319L9.58169 1.44318L9.58169 1.44318L9.58168 1.44317C9.27647 1.14174 8.97129 0.840354 8.668 0.537069C8.48817 0.325199 8.1889 0.259694 7.937 0.377069C5.75567 1.24107 3.57334 2.10274 1.39 2.96207C1.17097 3.03447 1.01732 3.23196 1.001 3.46207C0.896133 4.32105 0.789849 5.18033 0.683564 6.03962L0.683563 6.03963C0.455394 7.88433 0.227217 9.7291 0.0130027 11.5711C-0.0505127 12.1504 0.122646 12.7308 0.49319 13.1806C0.863735 13.6304 1.40025 13.9115 1.981 13.9601C2.56643 14.0319 3.15627 13.8668 3.61937 13.5015C4.08247 13.1363 4.38043 12.6011 4.447 12.0151C4.47648 11.7526 4.50673 11.4901 4.53699 11.2277C4.65969 10.1633 4.78241 9.09879 4.853 8.03107C4.89952 7.41893 5.15433 6.84119 5.575 6.39407ZM18.9746 12.6061C19.004 12.5745 19.0375 12.5385 19.077 12.4951H19.078C19.0943 12.8852 19.1106 13.2471 19.1264 13.598L19.1264 13.6L19.1265 13.6016L19.1266 13.603C19.1359 13.8107 19.1451 14.0145 19.154 14.2181C19.2068 15.5887 19.2585 16.9594 19.3102 18.33L19.3103 18.3342L19.3103 18.3343L19.3103 18.3344L19.3103 18.3344L19.3104 18.3345L19.3104 18.3346L19.3104 18.3347L19.3104 18.3348L19.3104 18.3348C19.4269 21.4265 19.5435 24.518 19.673 27.6091C19.7073 28.5467 20.1443 29.424 20.8722 30.0161C21.6001 30.6082 22.548 30.8575 23.473 30.7001H23.638C23.673 30.8454 23.7086 30.9908 23.7441 31.1361C23.8152 31.4268 23.8863 31.7174 23.953 32.0081C23.9737 32.0956 23.9949 32.1831 24.0161 32.2705L24.0161 32.2706L24.0161 32.2707L24.0161 32.2707L24.0162 32.2708L24.0162 32.2709L24.0162 32.2709L24.0162 32.271L24.0162 32.2711C24.0768 32.5212 24.1374 32.7713 24.187 33.0231C24.2422 33.2666 24.1826 33.5221 24.0254 33.7161C23.8682 33.9102 23.6307 34.0215 23.381 34.0181C22.7656 34.0504 22.1488 34.0454 21.534 34.0031C21.1064 33.9595 20.689 33.8449 20.299 33.6641C19.2116 33.1202 17.9419 33.0742 16.818 33.5381C16.1138 33.8416 15.3174 33.8513 14.606 33.5651C13.5784 33.1378 12.4293 33.1051 11.379 33.4731C11.108 33.5631 10.8323 33.6368 10.5561 33.7106L10.556 33.7106L10.446 33.7401C9.82599 33.9029 9.17139 33.8757 8.567 33.6621C8.05082 33.4761 7.52174 33.328 6.984 33.2191C6.28386 33.1275 5.57195 33.2167 4.916 33.4781C4.68479 33.5582 4.45101 33.6304 4.21736 33.7026L4.21729 33.7026L4.21722 33.7026L4.21715 33.7026L4.21708 33.7026L4.21701 33.7027L4.21694 33.7027L4.21686 33.7027L4.21679 33.7027L4.21675 33.7028L4.21672 33.7028C3.96655 33.78 3.71654 33.8572 3.47 33.9441C3.17457 34.0741 2.82859 33.9892 2.627 33.7371C2.39136 33.4787 2.35087 33.0972 2.527 32.7951C2.56018 32.7408 2.59763 32.6893 2.639 32.6411C3.25306 31.8978 3.86871 31.1559 4.48435 30.414L4.48454 30.4137L4.48466 30.4136L4.48471 30.4135L4.48476 30.4135L4.4848 30.4134L4.48485 30.4134L4.4849 30.4133L4.48495 30.4132C5.82313 28.8005 7.16127 27.1879 8.483 25.5621C11.9377 21.2927 15.3917 17.0224 18.845 12.7511C18.8817 12.706 18.9214 12.6634 18.9746 12.6061ZM21.855 4.65807C21.8125 4.69376 21.7729 4.72603 21.7353 4.75663L21.7353 4.75666L21.7352 4.75675C21.6844 4.79811 21.6374 4.83643 21.592 4.87607C16.15 9.61674 10.7043 14.3531 5.255 19.0851C4.66552 19.4904 4.34662 20.187 4.425 20.8981C4.50003 21.8756 4.2281 22.8482 3.657 23.6451C3.25876 24.2528 2.87575 24.8697 2.49273 25.4866C2.35638 25.7062 2.22004 25.9259 2.083 26.1451C1.72316 26.6458 1.64931 27.2975 1.888 27.8661C2.16185 28.4698 2.47642 29.0559 2.79699 29.6531L2.79701 29.6532L2.79703 29.6532L2.79705 29.6532L2.79709 29.6533L2.79712 29.6534L2.79713 29.6534L2.79714 29.6534L2.79714 29.6534C2.93424 29.9088 3.07243 30.1663 3.209 30.4281C3.309 30.3221 3.371 30.2561 3.429 30.1851C6.829 25.9817 10.229 21.7777 13.629 17.5731C15.3923 15.3924 17.1533 13.2097 18.912 11.0251C20.1267 9.5204 21.3417 8.01607 22.557 6.51207C22.7267 6.34824 22.8237 6.12318 22.8261 5.88729C22.8286 5.6514 22.7363 5.42438 22.57 5.25707C22.4213 5.1111 22.256 4.97935 22.0868 4.84452C22.0103 4.78354 21.9329 4.72192 21.856 4.65807H21.855ZM18.755 2.14307L7.606 11.9971V11.9961L7.58608 10.8456L7.58607 10.8453C7.55854 9.26563 7.53173 7.72726 7.514 6.19407C7.52869 6.05812 7.60452 5.93628 7.72 5.86307C10.654 4.29307 13.5897 2.7264 16.527 1.16307C16.8872 0.938637 17.3524 0.979406 17.668 1.26307L18.0717 1.58997C18.2897 1.76658 18.5146 1.94877 18.755 2.14307ZM19.572 2.80607C19.5453 2.82692 19.5225 2.8443 19.5023 2.85961L19.5023 2.85963L19.5023 2.85965C19.4675 2.88617 19.4407 2.90652 19.416 2.92807C17.6073 4.52807 15.7993 6.12607 13.992 7.72207C11.1773 10.2254 8.367 12.7331 5.561 15.2451C4.67267 16.0521 4.25976 17.2579 4.467 18.4401L21.037 3.99907L19.572 2.80607ZM10.2087 3.36278L10.209 3.36307L10.21 3.36207L10.2087 3.36278ZM9.67403 2.877C9.84916 3.0359 10.0271 3.19735 10.2087 3.36278L9.8358 3.56342L9.83576 3.56344L9.8346 3.56407C9.288 3.8582 8.81083 4.11497 8.333 4.37107C8.25012 4.41576 8.16608 4.45855 8.08203 4.50133L8.08198 4.50136C7.94599 4.57059 7.81002 4.63982 7.679 4.71707C7.30082 4.98245 6.83741 5.09759 6.379 5.04007C6.03503 5.0065 5.68951 5.08621 5.395 5.26707C4.60776 5.69476 4.05955 6.45923 3.907 7.34207C3.77692 8.28463 3.68442 9.23183 3.59189 10.1792L3.59188 10.1793L3.59188 10.1793L3.59188 10.1793L3.59188 10.1793C3.54855 10.623 3.50521 11.0667 3.458 11.5101C3.44629 11.7302 3.41279 11.9486 3.358 12.1621C3.16532 12.7232 2.58821 13.0561 2.006 12.9421C1.40878 12.8504 0.987821 12.3073 1.048 11.7061C1.1437 10.8146 1.25458 9.92419 1.36546 9.03367L1.36547 9.03366C1.40521 8.7145 1.44495 8.39532 1.484 8.07607C1.53307 7.67472 1.5827 7.27355 1.63231 6.87242L1.63233 6.8723L1.63236 6.87206L1.63236 6.87201C1.74653 5.94903 1.86067 5.02628 1.968 4.10207C1.96869 3.92116 2.08898 3.76253 2.263 3.71307C4.117 2.9904 5.96767 2.25974 7.815 1.52107C7.97515 1.43283 8.17534 1.4701 8.293 1.61007C8.7432 2.0325 9.19821 2.44531 9.67403 2.877ZM31.997 27.3421L21.825 9.27007L21.759 9.30107L28.659 28.2591L31.997 27.3421ZM21.285 11.2801L21.366 11.2521L27.658 28.5331L24.441 29.4171L21.285 11.2801ZM22.992 7.63107C22.9307 7.71441 22.8638 7.79359 22.792 7.86807C22.492 8.12907 22.492 8.36807 22.692 8.72907C25.8953 14.3871 29.0873 20.0511 32.268 25.7211C32.4249 25.9996 32.5825 26.2767 32.7674 26.6019L32.892 26.8211C32.9344 26.7385 32.9825 26.6589 33.036 26.5831C33.7897 25.7012 33.851 24.421 33.185 23.4711C30.2703 18.9377 27.3543 14.4044 24.437 9.87107L22.992 7.63107ZM23.4259 29.6454L23.426 29.6461L23.427 29.6451C23.4266 29.6452 23.4263 29.6453 23.4259 29.6454ZM20.211 11.1581L23.4259 29.6454C22.5132 29.8802 21.554 29.4924 21.061 28.6891C20.8611 28.3446 20.7421 27.9592 20.713 27.5621C20.6304 26.0026 20.573 24.4415 20.5157 22.8807C20.4974 22.3828 20.4791 21.8849 20.46 21.3871C20.336 18.1817 20.213 14.9791 20.091 11.7791C20.0863 11.6427 20.0879 11.5049 20.0895 11.3688C20.0902 11.3014 20.091 11.2343 20.091 11.1681L20.211 11.1581Z" fill="white"/>
</svg>
