<svg width="18" height="18" viewBox="0 0 18 18" fill="none" xmlns="http://www.w3.org/2000/svg">
<path fill-rule="evenodd" clip-rule="evenodd" d="M8.97706 7.39851H15.5321L15.5301 7.39551C16.5657 7.39661 17.405 8.23588 17.4061 9.27151V15.8265C17.405 16.8621 16.5657 17.7014 15.5301 17.7025H8.97506C8.04627 17.7009 7.25797 17.021 7.12006 16.1025L5.40106 14.8745C5.26704 14.7788 5.1875 14.6242 5.1875 14.4595C5.1875 14.2948 5.26704 14.1402 5.40106 14.0445L7.10106 12.8315V9.27451C7.10217 8.23888 7.94143 7.39961 8.97706 7.39851ZM13.0921 14.4225C13.1191 14.5265 13.2121 14.5645 13.3321 14.5645C13.5231 14.5645 13.7801 14.4385 13.7801 14.2695C13.7785 14.2508 13.7749 14.2324 13.7691 14.2145L12.7151 10.7785C12.6661 10.6145 12.4641 10.5375 12.2561 10.5375C12.0692 10.5136 11.8877 10.6102 11.8031 10.7785L10.7491 14.2145C10.7438 14.2325 10.7401 14.2509 10.7381 14.2695C10.7381 14.4445 10.9951 14.5645 11.1861 14.5645C11.3061 14.5645 11.3991 14.5225 11.4261 14.4225L11.6331 13.6955H12.8841L13.0921 14.4225Z" fill="#1C2340"/>
<path d="M11.776 13.1384H12.727L12.252 11.4614L11.776 13.1384Z" fill="#1C2340"/>
<path d="M6.081 9.27339C6.08061 8.61441 6.30615 7.97521 6.72 7.46239C6.15971 7.46303 5.61274 7.29164 5.153 6.97139C4.69326 7.29164 4.14629 7.46303 3.586 7.46239C3.4338 7.45341 3.31496 7.32736 3.31496 7.17489C3.31496 7.02242 3.4338 6.89637 3.586 6.88739C3.97838 6.88757 4.36344 6.78111 4.7 6.57939C4.29538 6.14351 4.04339 5.58794 3.982 4.99639H3.582C3.47524 5.00269 3.37378 4.94931 3.3185 4.85776C3.26322 4.76621 3.26322 4.65156 3.3185 4.56002C3.37378 4.46847 3.47524 4.41509 3.582 4.42139H4.865V3.72139C4.8587 3.61463 4.91208 3.51317 5.00363 3.45789C5.09518 3.4026 5.20982 3.4026 5.30137 3.45789C5.39292 3.51317 5.4463 3.61463 5.44 3.72139V4.42139H6.72C6.82676 4.41509 6.92822 4.46847 6.9835 4.56002C7.03878 4.65156 7.03878 4.76621 6.9835 4.85776C6.92822 4.94931 6.82676 5.00269 6.72 4.99639H6.32C6.25805 5.58818 6.00534 6.14378 5.6 6.57939C5.93679 6.78142 6.32226 6.8879 6.715 6.88739C6.86601 6.88702 6.99148 7.00374 7.002 7.15439C7.53663 6.65471 8.24122 6.37695 8.973 6.37739H10.302V5.16539L12 3.95239C12.134 3.85665 12.2136 3.70209 12.2136 3.53739C12.2136 3.37268 12.134 3.21812 12 3.12239L10.286 1.89639C10.148 0.977514 9.35917 0.29746 8.43 0.296387H1.875C0.840151 0.298039 0.0016518 1.13654 0 2.17139V8.72739C0.00110232 9.76302 0.840371 10.6023 1.876 10.6034H6.081V9.27339Z" fill="#1C2340"/>
<path d="M5.15301 6.22054C5.47556 5.88684 5.68269 5.45857 5.74401 4.99854H4.56201C4.62347 5.45853 4.83058 5.88676 5.15301 6.22054Z" fill="#1C2340"/>
</svg>
