<svg width="17" height="20" viewBox="0 0 17 20" fill="none" xmlns="http://www.w3.org/2000/svg">
<path fill-rule="evenodd" clip-rule="evenodd" d="M14.121 8.49882H15.021C15.4984 8.49882 15.9562 8.68846 16.2938 9.02603C16.6314 9.36359 16.821 9.82143 16.821 10.2988V17.5088C16.821 18.5029 16.0151 19.3088 15.021 19.3088H1.8C0.805887 19.3088 0 18.5029 0 17.5088V10.2988C0 9.30471 0.805887 8.49882 1.8 8.49882H2.705V5.79882C2.705 3.75955 3.79294 1.87518 5.559 0.855547C7.32506 -0.164089 9.50094 -0.164089 11.267 0.855547C13.0331 1.87518 14.121 3.75955 14.121 5.79882V8.49882ZM5.708 8.49882H11.115L11.116 5.79882C11.116 4.30544 9.90538 3.09482 8.412 3.09482C6.91862 3.09482 5.708 4.30544 5.708 5.79882V8.49882Z" fill="#1C2340"/>
</svg>
