<svg width="18" height="19" viewBox="0 0 18 19" fill="none" xmlns="http://www.w3.org/2000/svg">
<path fill-rule="evenodd" clip-rule="evenodd" d="M14.419 8.49988C14.419 5.72788 12.938 3.40788 10.356 2.79388V2.17188C10.356 1.42381 9.74957 0.817383 9.0015 0.817383C8.25343 0.817383 7.647 1.42381 7.647 2.17188V2.78588C5.055 3.40388 3.584 5.71588 3.584 8.49688V13.0109L1.779 14.8169V15.7169H16.225V14.8169L14.419 13.0109V8.49988ZM3.72 0.956883L5.011 2.24888C3.11556 3.59182 1.93568 5.72554 1.806 8.04488H0C0.12357 5.24639 1.48711 2.64834 3.72 0.956883ZM18.004 8.04888H16.202C16.0682 5.73085 14.8916 3.5982 13.002 2.24888L14.284 0.960883C16.5107 2.65757 17.8726 5.25251 18.004 8.04888ZM9.363 18.3959C9.24444 18.4217 9.12332 18.4338 9.002 18.4319V18.4279C8.00748 18.4258 7.19903 17.6253 7.187 16.6309H10.798C10.7998 16.8709 10.7539 17.1088 10.663 17.3309C10.4277 17.8754 9.9432 18.2723 9.363 18.3959Z" fill="#1C2340"/>
</svg>
