<svg width="18" height="17" viewBox="0 0 18 17" fill="none" xmlns="http://www.w3.org/2000/svg">
<path fill-rule="evenodd" clip-rule="evenodd" d="M17.9 6.62718V14.8092C17.9 15.8597 17.0505 16.7123 16 16.7162H1.907C1.40123 16.7162 0.916179 16.5153 0.558547 16.1576C0.200916 15.8 0 15.3149 0 14.8092V6.62718C0 5.57397 0.853793 4.72018 1.907 4.72018H3.32V2.16418C3.3211 1.47152 3.88234 0.910281 4.575 0.90918H13.158C13.8507 0.910281 14.4119 1.47152 14.413 2.16418V4.72018H16C17.0505 4.72404 17.9 5.5767 17.9 6.62718ZM5.128 3.16518C5.128 2.91389 5.33171 2.71018 5.583 2.71018H11.976C12.2273 2.71018 12.431 2.91389 12.431 3.16518C12.431 3.41647 12.2273 3.62018 11.976 3.62018H5.583C5.33171 3.62018 5.128 3.41647 5.128 3.16518ZM10.811 10.8282L16.525 14.5462L16.531 14.5492C16.6673 14.6385 16.7456 14.7937 16.7364 14.9564C16.7272 15.1191 16.6319 15.2646 16.4864 15.3379C16.3409 15.4113 16.1673 15.4015 16.031 15.3122L10.013 11.3952L9.713 11.6082C9.25983 11.926 8.65617 11.926 8.203 11.6082L7.947 11.4282L7.931 11.4412L1.9 15.3662C1.7637 15.4555 1.59011 15.4653 1.44461 15.3919C1.29911 15.3186 1.20381 15.1731 1.19461 15.0104C1.18541 14.8477 1.2637 14.6925 1.4 14.6032L7.142 10.8652L1.385 6.82218C1.25192 6.72875 1.17879 6.57143 1.19316 6.40946C1.20752 6.2475 1.30721 6.1055 1.45466 6.03696C1.6021 5.96842 1.77492 5.98375 1.908 6.07718L4.231 7.70418V6.06518V2.16518C4.231 1.97464 4.38546 1.82018 4.576 1.82018H13.155C13.3455 1.82018 13.5 1.97464 13.5 2.16518V7.81518L16.014 6.04518C16.2194 5.9002 16.5035 5.94923 16.6485 6.15468C16.7935 6.36013 16.7444 6.6442 16.539 6.78918L10.811 10.8282ZM5.583 5.65518H11.976C12.2273 5.65518 12.431 5.45147 12.431 5.20018C12.431 4.94889 12.2273 4.74518 11.976 4.74518H5.583C5.33171 4.74518 5.128 4.94889 5.128 5.20018C5.128 5.45147 5.33171 5.65518 5.583 5.65518ZM11.976 7.69118H5.583C5.33171 7.69118 5.128 7.48747 5.128 7.23618C5.128 6.98489 5.33171 6.78118 5.583 6.78118H11.976C12.2273 6.78118 12.431 6.98489 12.431 7.23618C12.431 7.48747 12.2273 7.69118 11.976 7.69118Z" fill="#1C2340"/>
</svg>
