<svg width="20" height="20" viewBox="0 0 20 20" fill="none" xmlns="http://www.w3.org/2000/svg">
<path fill-rule="evenodd" clip-rule="evenodd" d="M2.43306 19.4669H17.0321C18.3758 19.4669 19.4651 18.3776 19.4651 17.0339V4.86689C19.4756 4.21932 19.2175 3.59629 18.7521 3.14589C18.3014 2.68089 17.6785 2.42285 17.0311 2.43289H15.8141V1.21689C15.8215 0.892459 15.6945 0.579383 15.4631 0.351891C14.9814 -0.116291 14.2147 -0.116291 13.7331 0.351891C13.5018 0.579518 13.3748 0.892503 13.3821 1.21689V2.43289H10.9491V1.21589C10.9565 0.891459 10.8295 0.578383 10.5981 0.350891C10.1164 -0.117291 9.3497 -0.117291 8.86806 0.350891C8.63658 0.578758 8.50956 0.892158 8.51707 1.21689V2.43289H6.08307V1.21689C6.08768 0.892903 5.96109 0.580816 5.73206 0.351604C5.50304 0.122392 5.19106 -0.00446182 4.86706 -0.000108603C4.5419 -0.008378 4.2279 0.118743 4.00006 0.350891C3.76895 0.578928 3.64229 0.892306 3.65006 1.21689V2.43289H2.43406C1.78649 2.42237 1.16347 2.68048 0.713065 3.14589C0.248062 3.59657 -0.00997672 4.21941 6.48904e-05 4.86689V17.0339C-0.0104401 17.681 0.247281 18.3036 0.712065 18.7539C1.16274 19.2189 1.78558 19.4769 2.43306 19.4669ZM8.51606 10.3419C8.51606 11.6856 7.42677 12.7749 6.08307 12.7749L6.08807 12.7829C5.7639 12.7783 5.45166 12.905 5.22241 13.1342C4.99317 13.3635 4.86644 13.6757 4.87107 13.9999V14.2999C4.86913 14.38 4.90011 14.4575 4.9568 14.5142C5.01348 14.5708 5.09092 14.6018 5.17106 14.5999H7.90806C8.24413 14.5999 8.51657 14.8723 8.51657 15.2084C8.51657 15.5445 8.24413 15.8169 7.90806 15.8169H4.25806C3.9243 15.8121 3.6549 15.5427 3.65006 15.2089V13.9919C3.6498 13.3463 3.90615 12.727 4.36267 12.2705C4.81919 11.814 5.43845 11.5576 6.08406 11.5579C6.41034 11.5646 6.72435 11.4335 6.94907 11.1969C7.17697 10.9711 7.30361 10.6627 7.30007 10.3419V9.73389C7.30469 9.40973 7.17796 9.09748 6.94872 8.86824C6.71947 8.639 6.40723 8.51227 6.08307 8.51689C5.75907 8.51254 5.44709 8.63939 5.21807 8.8686C4.98904 9.09782 4.86245 9.4099 4.86706 9.73389C4.86841 9.89543 4.80291 10.0503 4.68606 10.1619C4.51528 10.3427 4.25064 10.3994 4.02075 10.3045C3.79087 10.2095 3.64342 9.98253 3.65006 9.73389C3.6498 9.08845 3.90602 8.46935 4.36232 8.01285C4.81862 7.55636 5.43762 7.29989 6.08307 7.29989C6.72851 7.29989 7.3475 7.55636 7.80381 8.01285C8.26011 8.46935 8.51633 9.08845 8.51606 9.73389V10.3419ZM15.8171 9.73289C15.8176 8.74846 15.2248 7.86074 14.3153 7.48394C13.4058 7.10715 12.3589 7.31554 11.6631 8.01189C11.1978 8.46236 10.9397 9.08534 10.9501 9.73289V10.3409C10.9501 11.6846 12.0394 12.7739 13.3831 12.7739C13.8101 12.7751 14.2298 12.6637 14.6001 12.4509V13.3829C14.6047 13.7069 14.4781 14.019 14.2491 14.2482C14.02 14.4774 13.7081 14.6042 13.3841 14.5999H13.2321C13.0321 14.5999 12.8864 14.5966 12.7951 14.5899C12.6889 14.5803 12.5838 14.5612 12.4811 14.5329C12.3757 14.5127 12.285 14.4463 12.2341 14.3519C12.1847 14.2382 12.1618 14.1147 12.1671 13.9909C12.1671 13.6548 11.8946 13.3824 11.5586 13.3824C11.2225 13.3824 10.9501 13.6548 10.9501 13.9909C10.9079 14.5391 11.1614 15.0682 11.6151 15.3789C12.1492 15.6938 12.7637 15.8457 13.3831 15.8159C14.7268 15.8159 15.8161 14.7266 15.8161 13.3829L15.8171 9.73289ZM12.5191 11.1969C12.7439 11.4334 13.0578 11.5645 13.3841 11.5579V11.5589C13.7108 11.5656 14.0253 11.4342 14.2501 11.1969C14.478 10.9711 14.6046 10.6627 14.6011 10.3419V9.73389C14.6138 9.29096 14.3847 8.87613 14.0031 8.65092C13.6215 8.42571 13.1476 8.42571 12.766 8.65092C12.3844 8.87613 12.1554 9.29096 12.1681 9.73389V10.3419C12.1642 10.6627 12.2909 10.9713 12.5191 11.1969Z" fill="white"/>
</svg>
