<svg width="31" height="38" viewBox="0 0 31 38" fill="none" xmlns="http://www.w3.org/2000/svg">
<path d="M23.301 5.32502V4.49402C23.301 4.21788 23.0772 3.99402 22.801 3.99402H15.812C15.5359 3.99402 15.312 4.21788 15.312 4.49402V5.85002C16.5014 5.50121 17.7346 5.32475 18.974 5.32602L23.301 5.32502Z" fill="url(#paint0_linear_0_2282)"/>
<path d="M13.0872 23.108L13.7872 22.054L12.1922 20.459C11.9858 20.2514 11.728 20.1023 11.4452 20.027C11.0254 20.8121 10.2075 21.3024 9.31717 21.3024C8.42687 21.3024 7.6089 20.8121 7.18917 20.027C6.90635 20.1024 6.64859 20.2515 6.44217 20.459L4.84717 22.054L5.54717 23.108L6.35317 22.708C6.56024 22.6048 6.80601 22.6165 7.00237 22.7388C7.19872 22.8612 7.31752 23.0766 7.31617 23.308V26.637H11.3102V23.308C11.3086 23.0763 11.4276 22.8606 11.6242 22.7382C11.8209 22.6158 12.067 22.6043 12.2742 22.708L13.0872 23.108Z" fill="url(#paint1_linear_0_2282)"/>
<path d="M21.9701 1C21.9701 0.447715 21.5224 0 20.9701 0H17.6221C17.0698 0 16.6221 0.447715 16.6221 1V2.664H21.9671L21.9701 1Z" fill="url(#paint2_linear_0_2282)"/>
<path fill-rule="evenodd" clip-rule="evenodd" d="M9.32005 15.312C13.7323 15.312 17.3091 18.8888 17.3091 23.301C17.3091 27.7132 13.7323 31.29 9.32005 31.29C4.90785 31.29 1.33105 27.7132 1.33105 23.301C1.33105 18.8888 4.90785 15.312 9.32005 15.312ZM5.99105 24.378V27.295C5.99105 27.6628 6.28923 27.961 6.65705 27.961H11.9831C12.3509 27.961 12.6491 27.6628 12.6491 27.295V24.378L13.0171 24.562C13.3174 24.7123 13.6827 24.6154 13.8691 24.336L15.2001 22.336C15.376 22.072 15.3413 21.7205 15.1171 21.496L13.1361 19.515C12.5755 18.9516 11.8128 18.6358 11.0181 18.638C10.7184 18.638 10.4557 18.8382 10.3761 19.127L10.3631 19.175C10.2336 19.6442 9.80676 19.9691 9.32005 19.9691C8.83335 19.9691 8.40655 19.6442 8.27705 19.175L8.26405 19.127C8.18442 18.8382 7.92169 18.638 7.62205 18.638C6.82727 18.6358 6.06462 18.9516 5.50405 19.515L3.52305 21.496C3.29883 21.7205 3.2641 22.072 3.44005 22.336L4.77105 24.336C4.95745 24.6154 5.3227 24.7123 5.62305 24.562L5.99105 24.378Z" fill="url(#paint3_linear_0_2282)"/>
<path fill-rule="evenodd" clip-rule="evenodd" d="M30.2522 15.446L26.2692 7.979C25.8368 7.16537 24.9906 6.65687 24.0692 6.657H18.9762C14.18 6.65159 9.87193 9.5898 8.12617 14.057C11.8099 13.5819 15.4241 15.3393 17.3251 18.5302C19.2262 21.7211 19.0511 25.7361 16.8796 28.7494C14.708 31.7627 10.9546 33.199 7.32617 32.405V36.117C7.32672 36.7602 7.84799 37.2814 8.49117 37.282H29.4622C30.1054 37.2814 30.6266 36.7602 30.6272 36.117V16.935C30.6257 16.4155 30.4969 15.9042 30.2522 15.446ZM15.3122 12.646H13.9812V11.318H15.3122V12.646ZM17.3102 33.946H18.6412V32.626H17.3102V31.295H15.9792V32.626H14.6482V33.958H15.9792V35.277H17.3102V33.946ZM17.3102 14.639H15.9792V13.308H17.3102V14.639ZM15.9792 10.645H17.3102V9.314H15.9792V10.645ZM19.3102 12.645H17.9792V11.318H19.3102V12.645ZM27.1302 25.962C27.9586 25.962 28.6302 25.2904 28.6302 24.462L28.6282 16.772C28.6283 16.5693 28.5755 16.3701 28.4752 16.194L26.1172 12.068C25.8503 11.6017 25.3544 11.3137 24.8172 11.313H22.8032C21.9747 11.313 21.3032 11.9846 21.3032 12.813V18.565C21.3031 18.6785 21.3196 18.7913 21.3522 18.9L23.1522 24.894C23.3395 25.5297 23.9245 25.965 24.5872 25.962H27.1302Z" fill="url(#paint4_linear_0_2282)"/>
<path d="M2.66205 11.983H3.99305V10.652H5.32405V9.32101H3.99405V7.98901H2.66205V9.32001H1.33105V10.651H2.66205V11.983Z" fill="url(#paint5_linear_0_2282)"/>
<path d="M0 30.624H1.331V31.955H0V30.624Z" fill="url(#paint6_linear_0_2282)"/>
<path d="M1.99707 32.621H3.32807V33.952H1.99707V32.621Z" fill="url(#paint7_linear_0_2282)"/>
<path d="M0 34.619H1.331V35.95H0V34.619Z" fill="url(#paint8_linear_0_2282)"/>
<defs>
<linearGradient id="paint0_linear_0_2282" x1="15.312" y1="3.99402" x2="15.312" y2="5.85002" gradientUnits="userSpaceOnUse">
<stop stop-color="#466FFF" stop-opacity="0.6"/>
<stop offset="1" stop-color="#3462FF"/>
</linearGradient>
<linearGradient id="paint1_linear_0_2282" x1="4.84717" y1="20.027" x2="4.84717" y2="26.637" gradientUnits="userSpaceOnUse">
<stop stop-color="#466FFF" stop-opacity="0.6"/>
<stop offset="1" stop-color="#3462FF"/>
</linearGradient>
<linearGradient id="paint2_linear_0_2282" x1="16.6221" y1="0" x2="16.6221" y2="2.664" gradientUnits="userSpaceOnUse">
<stop stop-color="#466FFF" stop-opacity="0.6"/>
<stop offset="1" stop-color="#3462FF"/>
</linearGradient>
<linearGradient id="paint3_linear_0_2282" x1="1.33105" y1="15.312" x2="1.33105" y2="31.29" gradientUnits="userSpaceOnUse">
<stop stop-color="#466FFF" stop-opacity="0.6"/>
<stop offset="1" stop-color="#3462FF"/>
</linearGradient>
<linearGradient id="paint4_linear_0_2282" x1="7.32617" y1="6.65698" x2="7.32617" y2="37.282" gradientUnits="userSpaceOnUse">
<stop stop-color="#466FFF" stop-opacity="0.6"/>
<stop offset="1" stop-color="#3462FF"/>
</linearGradient>
<linearGradient id="paint5_linear_0_2282" x1="1.33105" y1="7.98901" x2="1.33105" y2="11.983" gradientUnits="userSpaceOnUse">
<stop stop-color="#466FFF" stop-opacity="0.6"/>
<stop offset="1" stop-color="#3462FF"/>
</linearGradient>
<linearGradient id="paint6_linear_0_2282" x1="0" y1="30.624" x2="0" y2="31.955" gradientUnits="userSpaceOnUse">
<stop stop-color="#466FFF" stop-opacity="0.6"/>
<stop offset="1" stop-color="#3462FF"/>
</linearGradient>
<linearGradient id="paint7_linear_0_2282" x1="1.99707" y1="32.621" x2="1.99707" y2="33.952" gradientUnits="userSpaceOnUse">
<stop stop-color="#466FFF" stop-opacity="0.6"/>
<stop offset="1" stop-color="#3462FF"/>
</linearGradient>
<linearGradient id="paint8_linear_0_2282" x1="0" y1="34.619" x2="0" y2="35.95" gradientUnits="userSpaceOnUse">
<stop stop-color="#466FFF" stop-opacity="0.6"/>
<stop offset="1" stop-color="#3462FF"/>
</linearGradient>
</defs>
</svg>
