<svg width="18" height="25" viewBox="0 0 18 25" fill="none" xmlns="http://www.w3.org/2000/svg">
<path fill-rule="evenodd" clip-rule="evenodd" d="M8.81831 23.2715C4.51119 23.2715 0.833008 22.6013 0.833008 19.9171C0.833008 17.2328 4.48786 14.7549 8.81831 14.7549C13.1254 14.7549 16.8036 17.2088 16.8036 19.893C16.8036 22.5762 13.1488 23.2715 8.81831 23.2715Z" stroke="#212121" stroke-width="1.5" stroke-linecap="round" stroke-linejoin="round"/>
<path fill-rule="evenodd" clip-rule="evenodd" d="M8.80992 11.0357C11.6364 11.0357 13.9273 8.7448 13.9273 5.91829C13.9273 3.09177 11.6364 0.799805 8.80992 0.799805C5.98341 0.799805 3.69144 3.09177 3.69144 5.91829C3.68189 8.73526 5.95689 11.0262 8.77386 11.0357C8.78659 11.0357 8.79825 11.0357 8.80992 11.0357Z" stroke="#212121" stroke-width="1.5" stroke-linecap="round" stroke-linejoin="round"/>
</svg>
