<svg width="25" height="25" viewBox="0 0 25 25" fill="none" xmlns="http://www.w3.org/2000/svg">
<path fill-rule="evenodd" clip-rule="evenodd" d="M0.913765 17.5922C2.77104 22.0761 7.14642 24.9998 11.9998 25C15.184 25.0085 18.2394 23.7428 20.4848 21.4851C23.5575 18.462 24.7727 14.0232 23.6684 9.8566C22.5641 5.68999 19.3098 2.43578 15.1432 1.33145C10.9766 0.227125 6.53783 1.44237 3.51479 4.51505C0.0830493 7.94702 -0.94351 13.1082 0.913765 17.5922ZM7.34979 7.19305C7.42936 7.11364 7.53738 7.06935 7.64979 7.07005C7.76254 7.06909 7.87098 7.11339 7.95079 7.19305L12.0058 11.1931L16.0608 7.19305C16.2271 7.02886 16.4945 7.02886 16.6608 7.19305L17.8158 8.36205C17.9784 8.52901 17.9784 8.79509 17.8158 8.96205L13.7498 12.98L17.7998 17.045C17.8788 17.1249 17.923 17.2327 17.9228 17.345C17.9243 17.4576 17.8799 17.5659 17.7998 17.6451L16.6448 18.8071C16.5656 18.887 16.4573 18.9314 16.3448 18.93C16.2327 18.929 16.1253 18.885 16.0448 18.8071L11.9998 14.757L7.95679 18.813C7.87794 18.8935 7.76944 18.938 7.65679 18.9361C7.54461 18.9356 7.43703 18.8914 7.35679 18.813L6.19979 17.65C6.0356 17.4837 6.0356 17.2164 6.19979 17.0501L10.2588 12.9741L6.19279 8.95605C6.02967 8.78931 6.02967 8.52279 6.19279 8.35605L7.34979 7.19305Z" fill="white"/>
</svg>
