<svg width="25" height="25" viewBox="0 0 25 25" fill="none" xmlns="http://www.w3.org/2000/svg">
<path fill-rule="evenodd" clip-rule="evenodd" d="M0.913765 17.5922C2.77104 22.0761 7.14642 24.9998 11.9998 25C15.184 25.0085 18.2394 23.7428 20.4848 21.4851C23.5575 18.462 24.7727 14.0232 23.6684 9.8566C22.5641 5.68999 19.3098 2.43578 15.1432 1.33145C10.9766 0.227125 6.53783 1.44237 3.51479 4.51505C0.0830493 7.94702 -0.94351 13.1082 0.913765 17.5922ZM5.28079 11.904C5.42202 11.7649 5.61254 11.6873 5.81079 11.688C6.00843 11.6864 6.19879 11.7626 6.34079 11.9001L9.62479 15.1341L16.6588 8.21605C16.9539 7.92834 17.4246 7.92834 17.7198 8.21605L18.7798 9.25705C18.92 9.39436 18.999 9.58232 18.999 9.77855C18.999 9.97478 18.92 10.1627 18.7798 10.3L10.1548 18.784C9.85964 19.0718 9.38894 19.0718 9.09379 18.784L4.21979 13.99C4.0791 13.853 3.99975 13.6649 3.99975 13.4685C3.99975 13.2722 4.0791 13.0841 4.21979 12.9471L5.28079 11.904Z" fill="white"/>
</svg>
