<svg width="35" height="32" viewBox="0 0 35 32" fill="none" xmlns="http://www.w3.org/2000/svg">
<path d="M12.3747 19.2331V20.9961H11.1987V19.2331C11.2117 18.918 11.4709 18.6693 11.7862 18.6693C12.1015 18.6693 12.3607 18.918 12.3737 19.2331H12.3747Z" fill="url(#paint0_linear_0_2248)"/>
<path d="M10.0231 19.2331V20.9961H8.84814V19.2331C8.86115 18.918 9.12033 18.6693 9.43564 18.6693C9.75096 18.6693 10.0101 18.918 10.0231 19.2331Z" fill="url(#paint1_linear_0_2248)"/>
<path d="M7.67207 19.2331V20.9961H6.49707V19.2331C6.51007 18.918 6.76926 18.6693 7.08457 18.6693C7.39988 18.6693 7.65907 18.918 7.67207 19.2331Z" fill="url(#paint2_linear_0_2248)"/>
<path d="M0.620117 27.4611V29.2241H26.4811V20.9961H25.3051V21.5841C25.3035 23.2066 23.9886 24.5214 22.3661 24.5231H16.4891C14.8666 24.5214 13.5518 23.2066 13.5501 21.5841V20.9961H12.3751V21.5841C12.3621 21.8991 12.1029 22.1479 11.7876 22.1479C11.4723 22.1479 11.2131 21.8991 11.2001 21.5841V20.9961H10.0201V21.5841C10.0071 21.8991 9.74793 22.1479 9.43262 22.1479C9.1173 22.1479 8.85812 21.8991 8.84512 21.5841V20.9961H7.67312V21.5841C7.66012 21.8991 7.40093 22.1479 7.08562 22.1479C6.7703 22.1479 6.51112 21.8991 6.49812 21.5841V21.0261C3.17146 21.3322 0.624646 24.1204 0.620117 27.4611Z" fill="url(#paint3_linear_0_2248)"/>
<path d="M0.620117 30.4H26.4811V31.575H0.620117V30.4Z" fill="url(#paint4_linear_0_2248)"/>
<path d="M33.5329 14.5311V12.1801H15.9009V14.5311H17.0759V13.3561C17.067 13.1404 17.177 12.9372 17.3624 12.8267C17.5478 12.7162 17.7789 12.7162 17.9644 12.8267C18.1498 12.9372 18.2598 13.1404 18.2509 13.3561V14.5311H19.4269V13.3561C19.418 13.1404 19.528 12.9372 19.7134 12.8267C19.8988 12.7162 20.1299 12.7162 20.3154 12.8267C20.5008 12.9372 20.6108 13.1404 20.6019 13.3561V14.5311H21.7769V13.3561C21.768 13.1404 21.878 12.9372 22.0634 12.8267C22.2488 12.7162 22.4799 12.7162 22.6654 12.8267C22.8508 12.9372 22.9608 13.1404 22.9519 13.3561V14.5311H24.1269V13.3561C24.118 13.1404 24.228 12.9372 24.4134 12.8267C24.5988 12.7162 24.8299 12.7162 25.0154 12.8267C25.2008 12.9372 25.3108 13.1404 25.3019 13.3561V14.5311H26.4769V13.3561C26.4769 13.0313 26.7401 12.7681 27.0649 12.7681C27.3896 12.7681 27.6529 13.0313 27.6529 13.3561V14.5311H28.8279V13.3561C28.819 13.1404 28.929 12.9372 29.1144 12.8267C29.2998 12.7162 29.5309 12.7162 29.7164 12.8267C29.9018 12.9372 30.0118 13.1404 30.0029 13.3561V14.5311H31.1789V13.3561C31.17 13.1404 31.28 12.9372 31.4654 12.8267C31.6508 12.7162 31.8819 12.7162 32.0674 12.8267C32.2528 12.9372 32.3628 13.1404 32.3539 13.3561V14.5311H33.5329Z" fill="url(#paint5_linear_0_2248)"/>
<path d="M15.9009 11.0041H33.5329V1.01306C33.5329 0.688709 33.2702 0.425614 32.9459 0.425063H23.5459C23.3302 0.416163 23.127 0.526152 23.0165 0.71159C22.906 0.897028 22.906 1.1281 23.0165 1.31354C23.127 1.49897 23.3302 1.60896 23.5459 1.60006H31.7739C32.0986 1.60006 32.3619 1.86332 32.3619 2.18806V5.71506C32.3619 6.03981 32.0986 6.30306 31.7739 6.30306H18.8439C17.2202 6.30251 15.9031 7.61741 15.9009 9.24106V11.0041Z" fill="url(#paint6_linear_0_2248)"/>
<path d="M2.9708 11.0041C3.29555 11.0041 3.5588 10.7408 3.5588 10.4161V9.82806C3.5677 9.61239 3.45771 9.40918 3.27228 9.29869C3.08684 9.1882 2.85577 9.1882 2.67033 9.29869C2.48489 9.40918 2.3749 9.61239 2.3838 9.82806V10.4161C2.3838 10.7404 2.64645 11.0035 2.9708 11.0041Z" fill="url(#paint7_linear_0_2248)"/>
<path d="M1.20795 12.18H1.79595C2.01162 12.1889 2.21483 12.0789 2.32532 11.8935C2.43581 11.7081 2.43581 11.477 2.32532 11.2915C2.21483 11.1061 2.01162 10.9961 1.79595 11.005H1.20795C0.992271 10.9961 0.789059 11.1061 0.67857 11.2915C0.568081 11.477 0.568081 11.7081 0.67857 11.8935C0.789059 12.0789 0.992271 12.1889 1.20795 12.18Z" fill="url(#paint8_linear_0_2248)"/>
<path d="M2.97081 12.1801C2.81487 12.1801 2.66531 12.242 2.55503 12.3523C2.44476 12.4625 2.38281 12.6121 2.38281 12.7681V13.3561C2.39581 13.6711 2.655 13.9198 2.97031 13.9198C3.28563 13.9198 3.54481 13.6711 3.55781 13.3561V12.7681C3.55781 12.4437 3.29517 12.1806 2.97081 12.1801Z" fill="url(#paint9_linear_0_2248)"/>
<path d="M4.14691 12.18H4.73491C5.04996 12.167 5.29867 11.9078 5.29867 11.5925C5.29867 11.2772 5.04996 11.018 4.73491 11.005H4.14691C3.93124 10.9961 3.72802 11.1061 3.61753 11.2915C3.50705 11.477 3.50705 11.7081 3.61753 11.8935C3.72802 12.0789 3.93124 12.1889 4.14691 12.18Z" fill="url(#paint10_linear_0_2248)"/>
<path d="M31.7711 22.1711C32.0958 22.1711 32.3591 21.9078 32.3591 21.5831V20.9951C32.368 20.7794 32.258 20.5762 32.0726 20.4657C31.8871 20.3552 31.6561 20.3552 31.4706 20.4657C31.2852 20.5762 31.1752 20.7794 31.1841 20.9951V21.5831C31.1841 21.9074 31.4467 22.1705 31.7711 22.1711Z" fill="url(#paint11_linear_0_2248)"/>
<path d="M30.5959 22.1721H30.0079C29.6832 22.1721 29.4199 22.4354 29.4199 22.7601C29.4199 23.0849 29.6832 23.3481 30.0079 23.3481H30.5959C30.9207 23.3481 31.1839 23.0849 31.1839 22.7601C31.1839 22.4354 30.9207 22.1721 30.5959 22.1721Z" fill="url(#paint12_linear_0_2248)"/>
<path d="M31.7711 23.347C31.4464 23.347 31.1831 23.6103 31.1831 23.935V24.523C31.1742 24.7387 31.2842 24.9419 31.4696 25.0524C31.6551 25.1629 31.8862 25.1629 32.0716 25.0524C32.257 24.9419 32.367 24.7387 32.3581 24.523V23.935C32.3581 23.6107 32.0955 23.3476 31.7711 23.347V23.347Z" fill="url(#paint13_linear_0_2248)"/>
<path d="M33.5339 22.1721H32.9459C32.6212 22.1721 32.3579 22.4354 32.3579 22.7601C32.3579 23.0849 32.6212 23.3481 32.9459 23.3481H33.5339C33.8587 23.3481 34.1219 23.0849 34.1219 22.7601C34.1219 22.4354 33.8587 22.1721 33.5339 22.1721Z" fill="url(#paint14_linear_0_2248)"/>
<path d="M10.612 15.119C10.612 15.4437 10.3488 15.707 10.024 15.707C9.69929 15.707 9.43604 15.4437 9.43604 15.119C9.43604 14.7943 9.69929 14.531 10.024 14.531C10.3488 14.531 10.612 14.7943 10.612 15.119Z" fill="url(#paint15_linear_0_2248)"/>
<path d="M9.43612 3.36305C9.76086 3.36305 10.0241 3.09979 10.0241 2.77505V2.18705C10.0111 1.872 9.75193 1.62329 9.43662 1.62329C9.12131 1.62329 8.86212 1.872 8.84912 2.18705V2.77505C8.84912 3.0994 9.11177 3.3625 9.43612 3.36305Z" fill="url(#paint16_linear_0_2248)"/>
<path d="M7.77415 3.71208C8.00589 3.92745 8.3665 3.92084 8.5902 3.69714C8.81391 3.47343 8.82051 3.11283 8.60515 2.88108L8.18915 2.46508C8.04265 2.30744 7.82173 2.24242 7.61318 2.29558C7.40464 2.34874 7.2418 2.51158 7.18865 2.72012C7.13549 2.92866 7.2005 3.14958 7.35815 3.29608L7.77415 3.71208Z" fill="url(#paint17_linear_0_2248)"/>
<path d="M7.08475 5.12605H7.67275C7.9878 5.11305 8.23651 4.85386 8.23651 4.53855C8.23651 4.22324 7.9878 3.96405 7.67275 3.95105H7.08475C6.76971 3.96405 6.521 4.22324 6.521 4.53855C6.521 4.85386 6.76971 5.11305 7.08475 5.12605Z" fill="url(#paint18_linear_0_2248)"/>
<path d="M8.60075 5.37006C8.37119 5.14081 7.99932 5.14081 7.76975 5.37006L7.35375 5.78606C7.19611 5.93256 7.13109 6.15349 7.18425 6.36203C7.23741 6.57057 7.40025 6.73341 7.60879 6.78657C7.81733 6.83972 8.03825 6.77471 8.18475 6.61706L8.60075 6.20106C8.83001 5.9715 8.83001 5.59963 8.60075 5.37006Z" fill="url(#paint19_linear_0_2248)"/>
<path d="M9.43612 7.47804C9.76086 7.47804 10.0241 7.21478 10.0241 6.89004V6.30204C10.0111 5.98699 9.75193 5.73828 9.43662 5.73828C9.12131 5.73828 8.86212 5.98699 8.84912 6.30204V6.89004C8.84912 7.21439 9.11177 7.47749 9.43612 7.47804Z" fill="url(#paint20_linear_0_2248)"/>
<path d="M10.6831 6.61705C10.9149 6.83241 11.2755 6.82581 11.4992 6.6021C11.7229 6.3784 11.7295 6.01779 11.5141 5.78605L11.0981 5.37005C10.8664 5.15468 10.5058 5.16129 10.2821 5.38499C10.0584 5.60869 10.0518 5.9693 10.2671 6.20105L10.6831 6.61705Z" fill="url(#paint21_linear_0_2248)"/>
<path d="M10.6118 4.53903C10.6118 4.86377 10.8751 5.12703 11.1998 5.12703H11.7878C12.1029 5.11403 12.3516 4.85484 12.3516 4.53953C12.3516 4.22421 12.1029 3.96503 11.7878 3.95203H11.1998C10.8755 3.95203 10.6124 4.21467 10.6118 4.53903Z" fill="url(#paint22_linear_0_2248)"/>
<path d="M10.6831 3.88005C10.8391 3.88017 10.9888 3.8183 11.0991 3.70805L11.5151 3.29205C11.6728 3.14555 11.7378 2.92463 11.6846 2.71609C11.6315 2.50755 11.4686 2.34471 11.2601 2.29155C11.0515 2.23839 10.8306 2.30341 10.6841 2.46105L10.2681 2.87705C10.1026 3.04559 10.054 3.29681 10.1447 3.51491C10.2355 3.73301 10.4479 3.87564 10.6841 3.87705L10.6831 3.88005Z" fill="url(#paint23_linear_0_2248)"/>
<defs>
<linearGradient id="paint0_linear_0_2248" x1="11.1987" y1="18.6693" x2="11.1987" y2="20.9961" gradientUnits="userSpaceOnUse">
<stop stop-color="#FFBF35" stop-opacity="0.6"/>
<stop offset="1" stop-color="#FFA900"/>
</linearGradient>
<linearGradient id="paint1_linear_0_2248" x1="8.84814" y1="18.6693" x2="8.84814" y2="20.9961" gradientUnits="userSpaceOnUse">
<stop stop-color="#FFBF35" stop-opacity="0.6"/>
<stop offset="1" stop-color="#FFA900"/>
</linearGradient>
<linearGradient id="paint2_linear_0_2248" x1="6.49707" y1="18.6693" x2="6.49707" y2="20.9961" gradientUnits="userSpaceOnUse">
<stop stop-color="#FFBF35" stop-opacity="0.6"/>
<stop offset="1" stop-color="#FFA900"/>
</linearGradient>
<linearGradient id="paint3_linear_0_2248" x1="0.620117" y1="20.9961" x2="0.620117" y2="29.2241" gradientUnits="userSpaceOnUse">
<stop stop-color="#FFBF35" stop-opacity="0.6"/>
<stop offset="1" stop-color="#FFA900"/>
</linearGradient>
<linearGradient id="paint4_linear_0_2248" x1="0.620117" y1="30.4" x2="0.620117" y2="31.575" gradientUnits="userSpaceOnUse">
<stop stop-color="#FFBF35" stop-opacity="0.6"/>
<stop offset="1" stop-color="#FFA900"/>
</linearGradient>
<linearGradient id="paint5_linear_0_2248" x1="15.9009" y1="12.1801" x2="15.9009" y2="14.5311" gradientUnits="userSpaceOnUse">
<stop stop-color="#FFBF35" stop-opacity="0.6"/>
<stop offset="1" stop-color="#FFA900"/>
</linearGradient>
<linearGradient id="paint6_linear_0_2248" x1="15.9009" y1="0.424561" x2="15.9009" y2="11.0041" gradientUnits="userSpaceOnUse">
<stop stop-color="#FFBF35" stop-opacity="0.6"/>
<stop offset="1" stop-color="#FFA900"/>
</linearGradient>
<linearGradient id="paint7_linear_0_2248" x1="2.3833" y1="9.21582" x2="2.3833" y2="11.0041" gradientUnits="userSpaceOnUse">
<stop stop-color="#FFBF35" stop-opacity="0.6"/>
<stop offset="1" stop-color="#FFA900"/>
</linearGradient>
<linearGradient id="paint8_linear_0_2248" x1="0.595703" y1="11.0045" x2="0.595703" y2="12.1805" gradientUnits="userSpaceOnUse">
<stop stop-color="#FFBF35" stop-opacity="0.6"/>
<stop offset="1" stop-color="#FFA900"/>
</linearGradient>
<linearGradient id="paint9_linear_0_2248" x1="2.38281" y1="12.1801" x2="2.38281" y2="13.9198" gradientUnits="userSpaceOnUse">
<stop stop-color="#FFBF35" stop-opacity="0.6"/>
<stop offset="1" stop-color="#FFA900"/>
</linearGradient>
<linearGradient id="paint10_linear_0_2248" x1="3.53467" y1="11.0045" x2="3.53467" y2="12.1805" gradientUnits="userSpaceOnUse">
<stop stop-color="#FFBF35" stop-opacity="0.6"/>
<stop offset="1" stop-color="#FFA900"/>
</linearGradient>
<linearGradient id="paint11_linear_0_2248" x1="31.1836" y1="20.3828" x2="31.1836" y2="22.1711" gradientUnits="userSpaceOnUse">
<stop stop-color="#FFBF35" stop-opacity="0.6"/>
<stop offset="1" stop-color="#FFA900"/>
</linearGradient>
<linearGradient id="paint12_linear_0_2248" x1="29.4199" y1="22.1721" x2="29.4199" y2="23.3481" gradientUnits="userSpaceOnUse">
<stop stop-color="#FFBF35" stop-opacity="0.6"/>
<stop offset="1" stop-color="#FFA900"/>
</linearGradient>
<linearGradient id="paint13_linear_0_2248" x1="31.1826" y1="23.347" x2="31.1826" y2="25.1353" gradientUnits="userSpaceOnUse">
<stop stop-color="#FFBF35" stop-opacity="0.6"/>
<stop offset="1" stop-color="#FFA900"/>
</linearGradient>
<linearGradient id="paint14_linear_0_2248" x1="32.3579" y1="22.1721" x2="32.3579" y2="23.3481" gradientUnits="userSpaceOnUse">
<stop stop-color="#FFBF35" stop-opacity="0.6"/>
<stop offset="1" stop-color="#FFA900"/>
</linearGradient>
<linearGradient id="paint15_linear_0_2248" x1="9.43604" y1="14.531" x2="9.43604" y2="15.707" gradientUnits="userSpaceOnUse">
<stop stop-color="#FFBF35" stop-opacity="0.6"/>
<stop offset="1" stop-color="#FFA900"/>
</linearGradient>
<linearGradient id="paint16_linear_0_2248" x1="8.84912" y1="1.62329" x2="8.84912" y2="3.36305" gradientUnits="userSpaceOnUse">
<stop stop-color="#FFBF35" stop-opacity="0.6"/>
<stop offset="1" stop-color="#FFA900"/>
</linearGradient>
<linearGradient id="paint17_linear_0_2248" x1="7.17041" y1="2.27734" x2="7.17041" y2="3.86936" gradientUnits="userSpaceOnUse">
<stop stop-color="#FFBF35" stop-opacity="0.6"/>
<stop offset="1" stop-color="#FFA900"/>
</linearGradient>
<linearGradient id="paint18_linear_0_2248" x1="6.521" y1="3.95105" x2="6.521" y2="5.12605" gradientUnits="userSpaceOnUse">
<stop stop-color="#FFBF35" stop-opacity="0.6"/>
<stop offset="1" stop-color="#FFA900"/>
</linearGradient>
<linearGradient id="paint19_linear_0_2248" x1="7.16602" y1="5.19812" x2="7.16602" y2="6.8048" gradientUnits="userSpaceOnUse">
<stop stop-color="#FFBF35" stop-opacity="0.6"/>
<stop offset="1" stop-color="#FFA900"/>
</linearGradient>
<linearGradient id="paint20_linear_0_2248" x1="8.84912" y1="5.73828" x2="8.84912" y2="7.47804" gradientUnits="userSpaceOnUse">
<stop stop-color="#FFBF35" stop-opacity="0.6"/>
<stop offset="1" stop-color="#FFA900"/>
</linearGradient>
<linearGradient id="paint21_linear_0_2248" x1="10.1099" y1="5.21277" x2="10.1099" y2="6.77432" gradientUnits="userSpaceOnUse">
<stop stop-color="#FFBF35" stop-opacity="0.6"/>
<stop offset="1" stop-color="#FFA900"/>
</linearGradient>
<linearGradient id="paint22_linear_0_2248" x1="10.6118" y1="3.95203" x2="10.6118" y2="5.12703" gradientUnits="userSpaceOnUse">
<stop stop-color="#FFBF35" stop-opacity="0.6"/>
<stop offset="1" stop-color="#FFA900"/>
</linearGradient>
<linearGradient id="paint23_linear_0_2248" x1="10.0996" y1="2.27332" x2="10.0996" y2="3.88005" gradientUnits="userSpaceOnUse">
<stop stop-color="#FFBF35" stop-opacity="0.6"/>
<stop offset="1" stop-color="#FFA900"/>
</linearGradient>
</defs>
</svg>
