<svg width="25" height="25" viewBox="0 0 25 25" fill="none" xmlns="http://www.w3.org/2000/svg">
<path fill-rule="evenodd" clip-rule="evenodd" d="M12.3551 2.61614e-05C6.46086 0.000689965 1.38791 4.16487 0.238612 9.94595C-0.910689 15.727 2.18375 21.5149 7.62951 23.77C13.0753 26.0251 19.3557 24.1193 22.6299 19.2182C25.9041 14.317 25.2602 7.78553 21.0921 3.61803C18.7773 1.29736 15.6328 -0.00475431 12.3551 2.61614e-05ZM12.3551 3.22703C16.7092 3.22773 20.4566 6.30401 21.3055 10.5746C22.1544 14.8452 19.8684 19.1208 15.8455 20.7866C11.8226 22.4525 7.18323 21.0447 4.76443 17.4242C2.34564 13.8037 2.82111 8.97876 5.90007 5.90003C7.61037 4.18564 9.93346 3.22366 12.3551 3.22703ZM11.0921 11.072V5.30003H14.2501V14.232H7.89207V11.072H11.0921Z" fill="white"/>
</svg>
